<mxfile host="app.diagrams.net" modified="2021-06-24T13:20:13.301Z" agent="5.0 (Windows NT 10.0; Win64; x64) AppleWebKit/537.36 (KHTML, like Gecko) Chrome/90.0.4430.212 Safari/537.36" etag="jepNpIfeA__QMZYx3xvk" version="14.8.0" type="github">
  <diagram id="YUDJF-B7T9SWEaPQvbh9" name="Page-1">
    <mxGraphModel dx="1422" dy="762" grid="0" gridSize="10" guides="1" tooltips="1" connect="1" arrows="1" fold="1" page="0" pageScale="1" pageWidth="827" pageHeight="1169" math="0" shadow="0">
      <root>
        <mxCell id="0" />
        <mxCell id="1" parent="0" />
        <mxCell id="l75y9oXwlMvh9T1f_pYU-205" value="" style="rounded=0;whiteSpace=wrap;html=1;shadow=0;glass=1;sketch=1;fontFamily=Verdana;fontSize=13;align=center;dashed=1;" parent="1" vertex="1">
          <mxGeometry x="4658" y="1260" width="329" height="469" as="geometry" />
        </mxCell>
        <mxCell id="S7qlVdXXwg5bewVFXKOm-62" value="" style="rounded=0;whiteSpace=wrap;html=1;shadow=1;glass=1;labelBackgroundColor=#ffffff;sketch=1;fontSize=20;fontColor=#333333;strokeWidth=1;fillColor=#ffffff;gradientColor=none;align=center;verticalAlign=middle;" parent="1" vertex="1">
          <mxGeometry x="162" y="133" width="1366" height="536" as="geometry" />
        </mxCell>
        <mxCell id="yrFsYcVXHtA75D3nJsFq-68" value="" style="rounded=0;whiteSpace=wrap;html=1;shadow=0;glass=1;labelBackgroundColor=#ffffff;sketch=1;fontSize=18;fontColor=#EA6B66;strokeWidth=1;fillColor=#ffffff;gradientColor=none;align=center;" parent="1" vertex="1">
          <mxGeometry x="1064" y="828" width="325" height="265" as="geometry" />
        </mxCell>
        <mxCell id="yrFsYcVXHtA75D3nJsFq-14" value="" style="whiteSpace=wrap;html=1;shadow=0;glass=1;strokeWidth=1;perimeterSpacing=0;sketch=1;" parent="1" vertex="1">
          <mxGeometry x="144" y="828" width="817" height="263" as="geometry" />
        </mxCell>
        <mxCell id="yrFsYcVXHtA75D3nJsFq-15" value="连接器" style="text;strokeColor=none;fillColor=none;html=1;fontSize=20;fontStyle=1;verticalAlign=middle;align=center;shadow=0;glass=1;sketch=1;" parent="1" vertex="1">
          <mxGeometry x="348" y="832" width="100" height="40" as="geometry" />
        </mxCell>
        <mxCell id="yrFsYcVXHtA75D3nJsFq-17" value="" style="rounded=0;whiteSpace=wrap;html=1;shadow=0;glass=1;sketch=1;fontSize=20;strokeWidth=1;fillColor=#ffffff;gradientColor=none;" parent="1" vertex="1">
          <mxGeometry x="168" y="872" width="602" height="202" as="geometry" />
        </mxCell>
        <mxCell id="yrFsYcVXHtA75D3nJsFq-18" value="&lt;font style=&quot;font-size: 17px&quot;&gt;ProtocolHandler&lt;/font&gt;" style="text;strokeColor=none;fillColor=none;html=1;fontSize=24;fontStyle=1;verticalAlign=middle;align=center;shadow=0;glass=1;sketch=1;" parent="1" vertex="1">
          <mxGeometry x="172" y="872" width="142" height="39" as="geometry" />
        </mxCell>
        <mxCell id="yrFsYcVXHtA75D3nJsFq-22" value="" style="rounded=0;whiteSpace=wrap;html=1;shadow=0;glass=1;sketch=1;fontSize=20;strokeWidth=1;fillColor=#ffffff;gradientColor=none;" parent="1" vertex="1">
          <mxGeometry x="198" y="939" width="169" height="126" as="geometry" />
        </mxCell>
        <mxCell id="yrFsYcVXHtA75D3nJsFq-23" value="&lt;font style=&quot;font-size: 12px&quot;&gt;TCP/IP&lt;/font&gt;" style="text;strokeColor=none;fillColor=none;html=1;fontSize=24;fontStyle=1;verticalAlign=middle;align=center;shadow=0;glass=1;sketch=1;" parent="1" vertex="1">
          <mxGeometry x="258" y="911" width="41" height="21" as="geometry" />
        </mxCell>
        <mxCell id="yrFsYcVXHtA75D3nJsFq-24" value="Acceptor" style="shape=ext;double=1;rounded=0;whiteSpace=wrap;html=1;shadow=0;glass=1;sketch=1;fontSize=20;strokeWidth=1;fillColor=#ffffff;gradientColor=none;" parent="1" vertex="1">
          <mxGeometry x="214" y="971" width="97" height="75" as="geometry" />
        </mxCell>
        <mxCell id="yrFsYcVXHtA75D3nJsFq-25" value="" style="endArrow=classic;html=1;fontSize=20;entryX=0;entryY=0.5;entryDx=0;entryDy=0;sketch=1;shadow=1;" parent="1" target="yrFsYcVXHtA75D3nJsFq-22" edge="1">
          <mxGeometry width="50" height="50" relative="1" as="geometry">
            <mxPoint x="35" y="1002" as="sourcePoint" />
            <mxPoint x="80" y="959" as="targetPoint" />
          </mxGeometry>
        </mxCell>
        <mxCell id="yrFsYcVXHtA75D3nJsFq-26" value="请求" style="text;strokeColor=none;fillColor=none;html=1;fontSize=14;fontStyle=1;verticalAlign=middle;align=center;shadow=0;glass=1;sketch=1;" parent="1" vertex="1">
          <mxGeometry x="23" y="971" width="80" height="31" as="geometry" />
        </mxCell>
        <mxCell id="yrFsYcVXHtA75D3nJsFq-27" value="" style="endArrow=classic;html=1;shadow=1;fontSize=17;exitX=0;exitY=0.75;exitDx=0;exitDy=0;labelBorderColor=none;sketch=1;" parent="1" source="yrFsYcVXHtA75D3nJsFq-22" edge="1">
          <mxGeometry width="50" height="50" relative="1" as="geometry">
            <mxPoint x="528" y="983" as="sourcePoint" />
            <mxPoint x="35" y="1034" as="targetPoint" />
          </mxGeometry>
        </mxCell>
        <mxCell id="yrFsYcVXHtA75D3nJsFq-28" value="响应" style="text;strokeColor=none;fillColor=none;html=1;fontSize=14;fontStyle=1;verticalAlign=middle;align=center;shadow=0;glass=1;sketch=1;" parent="1" vertex="1">
          <mxGeometry x="23" y="1002" width="80" height="31" as="geometry" />
        </mxCell>
        <mxCell id="yrFsYcVXHtA75D3nJsFq-29" value="" style="rounded=0;whiteSpace=wrap;html=1;shadow=0;glass=1;sketch=1;fontSize=20;strokeWidth=1;fillColor=#ffffff;gradientColor=none;" parent="1" vertex="1">
          <mxGeometry x="387" y="896" width="199" height="169" as="geometry" />
        </mxCell>
        <mxCell id="yrFsYcVXHtA75D3nJsFq-30" value="&lt;font style=&quot;font-size: 15px;&quot;&gt;线程池（Executor）&lt;/font&gt;" style="text;strokeColor=none;fillColor=none;html=1;fontSize=15;fontStyle=1;verticalAlign=middle;align=center;shadow=0;glass=1;sketch=1;" parent="1" vertex="1">
          <mxGeometry x="389" y="898" width="142" height="36" as="geometry" />
        </mxCell>
        <mxCell id="yrFsYcVXHtA75D3nJsFq-31" style="edgeStyle=none;rounded=1;sketch=1;orthogonalLoop=1;jettySize=auto;html=1;exitX=1;exitY=1;exitDx=0;exitDy=0;shadow=1;fontSize=14;" parent="1" edge="1">
          <mxGeometry relative="1" as="geometry">
            <mxPoint x="536" y="957" as="sourcePoint" />
            <mxPoint x="536" y="957" as="targetPoint" />
          </mxGeometry>
        </mxCell>
        <mxCell id="yrFsYcVXHtA75D3nJsFq-33" value="" style="rounded=0;whiteSpace=wrap;html=1;shadow=0;glass=1;sketch=1;fontSize=15;strokeWidth=1;fillColor=#ffffff;gradientColor=none;" parent="1" vertex="1">
          <mxGeometry x="400" y="962" width="19" height="20" as="geometry" />
        </mxCell>
        <mxCell id="yrFsYcVXHtA75D3nJsFq-34" value="" style="rounded=0;whiteSpace=wrap;html=1;shadow=0;glass=1;sketch=1;fontSize=15;strokeWidth=1;fillColor=#ffffff;gradientColor=none;" parent="1" vertex="1">
          <mxGeometry x="407" y="969" width="19" height="20" as="geometry" />
        </mxCell>
        <mxCell id="yrFsYcVXHtA75D3nJsFq-35" value="" style="rounded=0;whiteSpace=wrap;html=1;shadow=0;glass=1;sketch=1;fontSize=15;strokeWidth=1;fillColor=#ffffff;gradientColor=none;" parent="1" vertex="1">
          <mxGeometry x="414" y="977" width="19" height="20" as="geometry" />
        </mxCell>
        <mxCell id="yrFsYcVXHtA75D3nJsFq-36" value="" style="rounded=0;whiteSpace=wrap;html=1;shadow=0;glass=1;sketch=1;fontSize=15;strokeWidth=1;fillColor=#ffffff;gradientColor=none;" parent="1" vertex="1">
          <mxGeometry x="420" y="984" width="19" height="20" as="geometry" />
        </mxCell>
        <mxCell id="yrFsYcVXHtA75D3nJsFq-37" value="" style="rounded=0;whiteSpace=wrap;html=1;shadow=0;glass=1;sketch=1;fontSize=15;strokeWidth=1;fillColor=#ffffff;gradientColor=none;" parent="1" vertex="1">
          <mxGeometry x="427" y="992" width="19" height="20" as="geometry" />
        </mxCell>
        <mxCell id="yrFsYcVXHtA75D3nJsFq-38" value="" style="rounded=0;whiteSpace=wrap;html=1;shadow=0;glass=1;sketch=1;fontSize=15;strokeWidth=1;fillColor=#ffffff;gradientColor=none;" parent="1" vertex="1">
          <mxGeometry x="433" y="999" width="19" height="20" as="geometry" />
        </mxCell>
        <mxCell id="yrFsYcVXHtA75D3nJsFq-39" value="" style="rounded=0;whiteSpace=wrap;html=1;shadow=0;glass=1;sketch=1;fontSize=15;strokeWidth=1;fillColor=#ffffff;gradientColor=none;" parent="1" vertex="1">
          <mxGeometry x="440" y="1006" width="19" height="20" as="geometry" />
        </mxCell>
        <mxCell id="yrFsYcVXHtA75D3nJsFq-40" value="" style="rounded=0;whiteSpace=wrap;html=1;shadow=0;glass=1;sketch=1;fontSize=15;strokeWidth=1;fillColor=#ffffff;gradientColor=none;" parent="1" vertex="1">
          <mxGeometry x="447" y="1013" width="19" height="20" as="geometry" />
        </mxCell>
        <mxCell id="yrFsYcVXHtA75D3nJsFq-41" value="" style="rounded=0;whiteSpace=wrap;html=1;shadow=0;glass=1;sketch=1;fontSize=15;strokeWidth=1;fillColor=#ffffff;gradientColor=none;" parent="1" vertex="1">
          <mxGeometry x="454" y="1020" width="19" height="20" as="geometry" />
        </mxCell>
        <mxCell id="yrFsYcVXHtA75D3nJsFq-42" value="" style="rounded=0;whiteSpace=wrap;html=1;shadow=0;glass=1;sketch=1;fontSize=15;strokeWidth=1;fillColor=#ffffff;gradientColor=none;" parent="1" vertex="1">
          <mxGeometry x="461" y="1027" width="19" height="20" as="geometry" />
        </mxCell>
        <mxCell id="yrFsYcVXHtA75D3nJsFq-44" value="" style="endArrow=classic;html=1;shadow=1;fontSize=15;startSize=6;endSize=6;exitX=1;exitY=0.5;exitDx=0;exitDy=0;sketch=1;" parent="1" edge="1">
          <mxGeometry width="50" height="50" relative="1" as="geometry">
            <mxPoint x="313" y="1010.5" as="sourcePoint" />
            <mxPoint x="418" y="1011" as="targetPoint" />
          </mxGeometry>
        </mxCell>
        <mxCell id="yrFsYcVXHtA75D3nJsFq-45" value="SocketProcessor" style="text;strokeColor=none;fillColor=none;html=1;fontSize=13;fontStyle=1;verticalAlign=middle;align=center;shadow=0;glass=1;sketch=1;" parent="1" vertex="1">
          <mxGeometry x="314" y="983" width="102" height="30" as="geometry" />
        </mxCell>
        <mxCell id="yrFsYcVXHtA75D3nJsFq-46" value="" style="html=1;aspect=fixed;strokeColor=none;shadow=0;align=center;verticalAlign=top;fillColor=#3B8DF1;shape=mxgraph.gcp2.arrows_system;glass=1;sketch=0;fontSize=13;" parent="1" vertex="1">
          <mxGeometry x="502.32" y="943" width="33.68" height="32" as="geometry" />
        </mxCell>
        <mxCell id="yrFsYcVXHtA75D3nJsFq-47" value="" style="html=1;aspect=fixed;strokeColor=none;shadow=0;align=center;verticalAlign=top;fillColor=#3B8DF1;shape=mxgraph.gcp2.arrows_system;glass=1;sketch=0;fontSize=13;" parent="1" vertex="1">
          <mxGeometry x="541" y="943" width="33.68" height="32" as="geometry" />
        </mxCell>
        <mxCell id="yrFsYcVXHtA75D3nJsFq-48" style="edgeStyle=none;rounded=1;sketch=1;orthogonalLoop=1;jettySize=auto;html=1;exitX=1;exitY=1;exitDx=0;exitDy=0;shadow=1;fontSize=14;" parent="1" edge="1">
          <mxGeometry relative="1" as="geometry">
            <mxPoint x="536" y="1041" as="sourcePoint" />
            <mxPoint x="536" y="1041" as="targetPoint" />
          </mxGeometry>
        </mxCell>
        <mxCell id="yrFsYcVXHtA75D3nJsFq-49" value="" style="html=1;aspect=fixed;strokeColor=none;shadow=0;align=center;verticalAlign=top;fillColor=#3B8DF1;shape=mxgraph.gcp2.arrows_system;glass=1;sketch=0;fontSize=13;" parent="1" vertex="1">
          <mxGeometry x="502.32" y="1027" width="33.68" height="32" as="geometry" />
        </mxCell>
        <mxCell id="yrFsYcVXHtA75D3nJsFq-50" value="" style="html=1;aspect=fixed;strokeColor=none;shadow=0;align=center;verticalAlign=top;fillColor=#3B8DF1;shape=mxgraph.gcp2.arrows_system;glass=1;sketch=0;fontSize=13;" parent="1" vertex="1">
          <mxGeometry x="541" y="1027" width="33.68" height="32" as="geometry" />
        </mxCell>
        <mxCell id="yrFsYcVXHtA75D3nJsFq-51" style="edgeStyle=none;rounded=1;sketch=1;orthogonalLoop=1;jettySize=auto;html=1;exitX=1;exitY=1;exitDx=0;exitDy=0;shadow=1;fontSize=14;" parent="1" edge="1">
          <mxGeometry relative="1" as="geometry">
            <mxPoint x="536" y="999" as="sourcePoint" />
            <mxPoint x="536" y="999" as="targetPoint" />
          </mxGeometry>
        </mxCell>
        <mxCell id="yrFsYcVXHtA75D3nJsFq-52" value="" style="html=1;aspect=fixed;strokeColor=none;shadow=0;align=center;verticalAlign=top;fillColor=#3B8DF1;shape=mxgraph.gcp2.arrows_system;glass=1;sketch=0;fontSize=13;" parent="1" vertex="1">
          <mxGeometry x="502.32" y="985" width="33.68" height="32" as="geometry" />
        </mxCell>
        <mxCell id="yrFsYcVXHtA75D3nJsFq-53" value="" style="html=1;aspect=fixed;strokeColor=none;shadow=0;align=center;verticalAlign=top;fillColor=#3B8DF1;shape=mxgraph.gcp2.arrows_system;glass=1;sketch=0;fontSize=13;" parent="1" vertex="1">
          <mxGeometry x="541" y="985" width="33.68" height="32" as="geometry" />
        </mxCell>
        <mxCell id="yrFsYcVXHtA75D3nJsFq-54" value="" style="endArrow=classic;html=1;shadow=1;fontSize=13;startSize=6;endSize=6;entryX=0.169;entryY=0.625;entryDx=0;entryDy=0;entryPerimeter=0;" parent="1" target="yrFsYcVXHtA75D3nJsFq-46" edge="1">
          <mxGeometry width="50" height="50" relative="1" as="geometry">
            <mxPoint x="468" y="991" as="sourcePoint" />
            <mxPoint x="503" y="940" as="targetPoint" />
          </mxGeometry>
        </mxCell>
        <mxCell id="yrFsYcVXHtA75D3nJsFq-55" value="" style="endArrow=classic;html=1;shadow=1;fontSize=13;startSize=6;endSize=6;entryX=0.109;entryY=0.625;entryDx=0;entryDy=0;entryPerimeter=0;" parent="1" target="yrFsYcVXHtA75D3nJsFq-52" edge="1">
          <mxGeometry width="50" height="50" relative="1" as="geometry">
            <mxPoint x="469" y="1005" as="sourcePoint" />
            <mxPoint x="525" y="1122" as="targetPoint" />
          </mxGeometry>
        </mxCell>
        <mxCell id="yrFsYcVXHtA75D3nJsFq-56" value="" style="endArrow=classic;html=1;shadow=1;fontSize=13;startSize=6;endSize=6;exitX=1;exitY=0;exitDx=0;exitDy=0;entryX=0.198;entryY=0.5;entryDx=0;entryDy=0;entryPerimeter=0;" parent="1" source="yrFsYcVXHtA75D3nJsFq-41" target="yrFsYcVXHtA75D3nJsFq-49" edge="1">
          <mxGeometry width="50" height="50" relative="1" as="geometry">
            <mxPoint x="507" y="1174" as="sourcePoint" />
            <mxPoint x="557" y="1124" as="targetPoint" />
          </mxGeometry>
        </mxCell>
        <mxCell id="yrFsYcVXHtA75D3nJsFq-57" value="Processor" style="shape=ext;double=1;rounded=0;whiteSpace=wrap;html=1;shadow=0;glass=1;sketch=1;fontSize=17;strokeWidth=1;fillColor=#ffffff;gradientColor=none;" parent="1" vertex="1">
          <mxGeometry x="639" y="982" width="118" height="62" as="geometry" />
        </mxCell>
        <mxCell id="yrFsYcVXHtA75D3nJsFq-58" value="" style="endArrow=classic;html=1;shadow=1;fontSize=17;startSize=6;endSize=6;sketch=1;strokeWidth=1;exitX=1.025;exitY=0.698;exitDx=0;exitDy=0;exitPerimeter=0;" parent="1" source="yrFsYcVXHtA75D3nJsFq-29" edge="1">
          <mxGeometry width="50" height="50" relative="1" as="geometry">
            <mxPoint x="608" y="1029" as="sourcePoint" />
            <mxPoint x="639" y="1014" as="targetPoint" />
          </mxGeometry>
        </mxCell>
        <mxCell id="yrFsYcVXHtA75D3nJsFq-59" value="Adapter" style="rounded=0;whiteSpace=wrap;html=1;shadow=0;glass=1;sketch=1;fontSize=17;strokeWidth=1;fillColor=#ffffff;gradientColor=none;" parent="1" vertex="1">
          <mxGeometry x="816.79" y="984" width="120" height="60" as="geometry" />
        </mxCell>
        <mxCell id="yrFsYcVXHtA75D3nJsFq-60" value="" style="endArrow=classic;html=1;shadow=1;fontSize=17;startSize=6;endSize=6;strokeWidth=1;exitX=1.007;exitY=0.579;exitDx=0;exitDy=0;exitPerimeter=0;entryX=0;entryY=0.5;entryDx=0;entryDy=0;sketch=1;" parent="1" target="yrFsYcVXHtA75D3nJsFq-59" edge="1">
          <mxGeometry width="50" height="50" relative="1" as="geometry">
            <mxPoint x="770.0039999999999" y="1014.9580000000001" as="sourcePoint" />
            <mxPoint x="819.79" y="992" as="targetPoint" />
          </mxGeometry>
        </mxCell>
        <mxCell id="yrFsYcVXHtA75D3nJsFq-61" value="" style="endArrow=classic;html=1;shadow=1;fontSize=17;startSize=6;endSize=6;strokeWidth=1;exitX=1.005;exitY=0.726;exitDx=0;exitDy=0;exitPerimeter=0;sketch=1;startArrow=blockThin;startFill=1;" parent="1" source="yrFsYcVXHtA75D3nJsFq-14" edge="1">
          <mxGeometry width="50" height="50" relative="1" as="geometry">
            <mxPoint x="1004" y="1069" as="sourcePoint" />
            <mxPoint x="1054" y="1019" as="targetPoint" />
          </mxGeometry>
        </mxCell>
        <mxCell id="yrFsYcVXHtA75D3nJsFq-63" value="连接器" style="text;strokeColor=none;fillColor=none;html=1;fontSize=20;fontStyle=1;verticalAlign=middle;align=center;shadow=0;glass=1;sketch=1;" parent="1" vertex="1">
          <mxGeometry x="348" y="832" width="100" height="40" as="geometry" />
        </mxCell>
        <mxCell id="yrFsYcVXHtA75D3nJsFq-64" value="容器" style="text;strokeColor=none;fillColor=none;html=1;fontSize=24;fontStyle=1;verticalAlign=middle;align=center;shadow=0;glass=1;sketch=1;" parent="1" vertex="1">
          <mxGeometry x="1134" y="837" width="100" height="36" as="geometry" />
        </mxCell>
        <mxCell id="yrFsYcVXHtA75D3nJsFq-65" value="Controller&lt;br&gt;Service&lt;br&gt;Dao" style="rounded=0;whiteSpace=wrap;html=1;shadow=0;glass=1;sketch=1;fontSize=17;strokeWidth=1;fillColor=#d5e8d4;align=center;strokeColor=#82b366;fontStyle=1;fontColor=#EA6B66;" parent="1" vertex="1">
          <mxGeometry x="1073" y="992" width="120" height="60" as="geometry" />
        </mxCell>
        <mxCell id="yrFsYcVXHtA75D3nJsFq-66" value="&lt;font color=&quot;#333333&quot; style=&quot;font-size: 18px;&quot;&gt;容器负责处理Servlet请求&lt;/font&gt;" style="text;strokeColor=none;fillColor=none;html=1;fontSize=18;fontStyle=3;verticalAlign=middle;align=center;shadow=0;glass=1;sketch=1;fontColor=#EA6B66;" parent="1" vertex="1">
          <mxGeometry x="1073" y="882" width="213" height="50" as="geometry" />
        </mxCell>
        <mxCell id="yrFsYcVXHtA75D3nJsFq-67" value="&lt;font color=&quot;#333333&quot;&gt;数据库连接池&lt;/font&gt;" style="shape=ext;double=1;rounded=1;whiteSpace=wrap;html=1;shadow=0;glass=1;sketch=1;fontSize=18;strokeWidth=1;fillColor=#ffe6cc;align=center;labelBackgroundColor=#ffffff;strokeColor=#d79b00;" parent="1" vertex="1">
          <mxGeometry x="1257" y="989" width="122" height="59" as="geometry" />
        </mxCell>
        <mxCell id="yrFsYcVXHtA75D3nJsFq-69" value="" style="endArrow=classic;html=1;shadow=1;fontSize=18;fontColor=#EA6B66;startSize=6;endSize=6;strokeWidth=1;exitX=1;exitY=0.5;exitDx=0;exitDy=0;sketch=1;" parent="1" source="yrFsYcVXHtA75D3nJsFq-65" edge="1">
          <mxGeometry width="50" height="50" relative="1" as="geometry">
            <mxPoint x="1205" y="1052" as="sourcePoint" />
            <mxPoint x="1255" y="1022" as="targetPoint" />
          </mxGeometry>
        </mxCell>
        <mxCell id="yrFsYcVXHtA75D3nJsFq-70" value="" style="shape=cylinder3;whiteSpace=wrap;html=1;boundedLbl=1;backgroundOutline=1;size=15;shadow=0;glass=1;labelBackgroundColor=#ffffff;sketch=1;fontSize=18;strokeWidth=1;fillColor=#fff2cc;align=center;strokeColor=#d6b656;" parent="1" vertex="1">
          <mxGeometry x="1493" y="971" width="60" height="80" as="geometry" />
        </mxCell>
        <mxCell id="yrFsYcVXHtA75D3nJsFq-71" value="&lt;font color=&quot;#333333&quot; style=&quot;font-size: 20px;&quot;&gt;数据库&lt;/font&gt;" style="text;strokeColor=none;fillColor=none;html=1;fontSize=20;fontStyle=1;verticalAlign=middle;align=center;shadow=0;glass=1;labelBackgroundColor=#ffffff;sketch=1;fontColor=#EA6B66;" parent="1" vertex="1">
          <mxGeometry x="1476" y="1057" width="100" height="40" as="geometry" />
        </mxCell>
        <mxCell id="yrFsYcVXHtA75D3nJsFq-72" value="" style="endArrow=classic;html=1;shadow=1;fontSize=20;fontColor=#EA6B66;startSize=6;endSize=6;strokeWidth=1;exitX=1;exitY=0.75;exitDx=0;exitDy=0;sketch=1;startArrow=blockThin;startFill=1;" parent="1" source="yrFsYcVXHtA75D3nJsFq-68" edge="1">
          <mxGeometry width="50" height="50" relative="1" as="geometry">
            <mxPoint x="1488" y="1220" as="sourcePoint" />
            <mxPoint x="1486" y="1027" as="targetPoint" />
          </mxGeometry>
        </mxCell>
        <mxCell id="S7qlVdXXwg5bewVFXKOm-2" value="NIOEndPoint" style="text;strokeColor=none;fillColor=none;html=1;fontSize=24;fontStyle=1;verticalAlign=middle;align=center;shadow=0;glass=1;labelBackgroundColor=#ffffff;sketch=1;fontColor=#333333;" parent="1" vertex="1">
          <mxGeometry x="164" y="131" width="167" height="43" as="geometry" />
        </mxCell>
        <mxCell id="S7qlVdXXwg5bewVFXKOm-3" value="LimitLatch" style="shape=ext;double=1;rounded=0;whiteSpace=wrap;html=1;shadow=0;glass=1;labelBackgroundColor=#ffffff;sketch=1;fontSize=20;fontColor=#333333;strokeWidth=1;fillColor=#ffffff;gradientColor=none;align=center;" parent="1" vertex="1">
          <mxGeometry x="186" y="385" width="119" height="50" as="geometry" />
        </mxCell>
        <mxCell id="S7qlVdXXwg5bewVFXKOm-4" value="" style="shape=ext;double=1;rounded=0;whiteSpace=wrap;html=1;shadow=0;glass=1;labelBackgroundColor=#ffffff;sketch=1;fontSize=20;fontColor=#333333;strokeWidth=1;fillColor=#ffffff;gradientColor=none;align=center;" parent="1" vertex="1">
          <mxGeometry x="347" y="310" width="145" height="70" as="geometry" />
        </mxCell>
        <mxCell id="S7qlVdXXwg5bewVFXKOm-6" value="&lt;font style=&quot;font-size: 18px&quot;&gt;Acceptor&lt;/font&gt;" style="text;strokeColor=none;fillColor=none;html=1;fontSize=24;fontStyle=1;verticalAlign=middle;align=center;shadow=0;glass=1;labelBackgroundColor=#ffffff;sketch=1;fontColor=#333333;" parent="1" vertex="1">
          <mxGeometry x="344.5" y="316" width="100" height="30" as="geometry" />
        </mxCell>
        <mxCell id="S7qlVdXXwg5bewVFXKOm-7" value="" style="html=1;aspect=fixed;strokeColor=none;shadow=0;align=center;verticalAlign=top;fillColor=#3B8DF1;shape=mxgraph.gcp2.arrows_system;glass=1;labelBackgroundColor=#ffffff;sketch=0;fontSize=20;fontColor=#333333;" parent="1" vertex="1">
          <mxGeometry x="445.32" y="338" width="33.68" height="32" as="geometry" />
        </mxCell>
        <mxCell id="S7qlVdXXwg5bewVFXKOm-8" value="" style="shape=ext;double=1;rounded=0;whiteSpace=wrap;html=1;shadow=0;glass=1;labelBackgroundColor=#ffffff;sketch=1;fontSize=20;fontColor=#333333;strokeWidth=1;fillColor=#ffffff;gradientColor=none;align=center;" parent="1" vertex="1">
          <mxGeometry x="349.5" y="439" width="145" height="70" as="geometry" />
        </mxCell>
        <mxCell id="S7qlVdXXwg5bewVFXKOm-9" value="&lt;font style=&quot;font-size: 18px&quot;&gt;Acceptor&lt;/font&gt;" style="text;strokeColor=none;fillColor=none;html=1;fontSize=24;fontStyle=1;verticalAlign=middle;align=center;shadow=0;glass=1;labelBackgroundColor=#ffffff;sketch=1;fontColor=#333333;" parent="1" vertex="1">
          <mxGeometry x="347" y="445" width="100" height="30" as="geometry" />
        </mxCell>
        <mxCell id="S7qlVdXXwg5bewVFXKOm-10" value="" style="html=1;aspect=fixed;strokeColor=none;shadow=0;align=center;verticalAlign=top;fillColor=#3B8DF1;shape=mxgraph.gcp2.arrows_system;glass=1;labelBackgroundColor=#ffffff;sketch=0;fontSize=20;fontColor=#333333;" parent="1" vertex="1">
          <mxGeometry x="447.81999999999994" y="467" width="33.68" height="32" as="geometry" />
        </mxCell>
        <mxCell id="S7qlVdXXwg5bewVFXKOm-11" value="" style="endArrow=classic;html=1;shadow=1;fontSize=20;fontColor=#333333;startSize=6;endSize=6;strokeWidth=1;exitX=1;exitY=0.5;exitDx=0;exitDy=0;entryX=0;entryY=0.75;entryDx=0;entryDy=0;sketch=1;" parent="1" source="S7qlVdXXwg5bewVFXKOm-3" target="S7qlVdXXwg5bewVFXKOm-4" edge="1">
          <mxGeometry width="50" height="50" relative="1" as="geometry">
            <mxPoint x="314" y="434" as="sourcePoint" />
            <mxPoint x="364" y="384" as="targetPoint" />
          </mxGeometry>
        </mxCell>
        <mxCell id="S7qlVdXXwg5bewVFXKOm-12" value="" style="endArrow=classic;html=1;shadow=1;fontSize=20;fontColor=#333333;startSize=6;endSize=6;strokeWidth=1;exitX=1;exitY=0.5;exitDx=0;exitDy=0;entryX=0;entryY=0.25;entryDx=0;entryDy=0;" parent="1" source="S7qlVdXXwg5bewVFXKOm-3" target="S7qlVdXXwg5bewVFXKOm-9" edge="1">
          <mxGeometry width="50" height="50" relative="1" as="geometry">
            <mxPoint x="311" y="468" as="sourcePoint" />
            <mxPoint x="347" y="458" as="targetPoint" />
          </mxGeometry>
        </mxCell>
        <mxCell id="S7qlVdXXwg5bewVFXKOm-13" value="" style="shape=ext;double=1;rounded=0;whiteSpace=wrap;html=1;shadow=0;glass=1;labelBackgroundColor=#ffffff;sketch=0;fontSize=20;fontColor=#333333;strokeWidth=1;fillColor=#ffffff;gradientColor=none;align=center;" parent="1" vertex="1">
          <mxGeometry x="594" y="265" width="159" height="89" as="geometry" />
        </mxCell>
        <mxCell id="S7qlVdXXwg5bewVFXKOm-17" value="Channel" style="rounded=0;whiteSpace=wrap;html=1;shadow=0;glass=1;labelBackgroundColor=#ffffff;sketch=1;fontSize=15;fontColor=#333333;strokeWidth=1;fillColor=#ffffff;gradientColor=none;align=center;verticalAlign=middle;" parent="1" vertex="1">
          <mxGeometry x="606" y="303" width="71" height="27" as="geometry" />
        </mxCell>
        <mxCell id="S7qlVdXXwg5bewVFXKOm-18" value="Channel" style="rounded=0;whiteSpace=wrap;html=1;shadow=0;glass=1;labelBackgroundColor=#ffffff;sketch=1;fontSize=15;fontColor=#333333;strokeWidth=1;fillColor=#ffffff;gradientColor=none;align=center;verticalAlign=middle;" parent="1" vertex="1">
          <mxGeometry x="615" y="311" width="71" height="27" as="geometry" />
        </mxCell>
        <mxCell id="S7qlVdXXwg5bewVFXKOm-19" value="Channel" style="rounded=0;whiteSpace=wrap;html=1;shadow=0;glass=1;labelBackgroundColor=#ffffff;sketch=1;fontSize=15;fontColor=#333333;strokeWidth=1;fillColor=#ffffff;gradientColor=none;align=center;verticalAlign=middle;" parent="1" vertex="1">
          <mxGeometry x="625" y="321" width="71" height="27" as="geometry" />
        </mxCell>
        <mxCell id="S7qlVdXXwg5bewVFXKOm-21" value="Poller" style="text;strokeColor=none;fillColor=none;html=1;fontSize=19;fontStyle=1;verticalAlign=middle;align=center;shadow=0;glass=1;labelBackgroundColor=#ffffff;sketch=1;fontColor=#333333;" parent="1" vertex="1">
          <mxGeometry x="654" y="275" width="58" height="15" as="geometry" />
        </mxCell>
        <mxCell id="S7qlVdXXwg5bewVFXKOm-22" value="" style="html=1;aspect=fixed;strokeColor=none;shadow=0;align=center;verticalAlign=top;fillColor=#3B8DF1;shape=mxgraph.gcp2.arrows_system;glass=1;labelBackgroundColor=#ffffff;sketch=0;fontSize=20;fontColor=#333333;" parent="1" vertex="1">
          <mxGeometry x="712" y="300.5" width="33.68" height="32" as="geometry" />
        </mxCell>
        <mxCell id="S7qlVdXXwg5bewVFXKOm-23" value="" style="shape=ext;double=1;rounded=0;whiteSpace=wrap;html=1;shadow=0;glass=1;labelBackgroundColor=#ffffff;sketch=0;fontSize=20;fontColor=#333333;strokeWidth=1;fillColor=#ffffff;gradientColor=none;align=center;" parent="1" vertex="1">
          <mxGeometry x="594" y="383.5" width="159" height="89" as="geometry" />
        </mxCell>
        <mxCell id="S7qlVdXXwg5bewVFXKOm-24" value="Channel" style="rounded=0;whiteSpace=wrap;html=1;shadow=0;glass=1;labelBackgroundColor=#ffffff;sketch=1;fontSize=15;fontColor=#333333;strokeWidth=1;fillColor=#ffffff;gradientColor=none;align=center;verticalAlign=middle;" parent="1" vertex="1">
          <mxGeometry x="606" y="421.5" width="71" height="27" as="geometry" />
        </mxCell>
        <mxCell id="S7qlVdXXwg5bewVFXKOm-25" value="Channel" style="rounded=0;whiteSpace=wrap;html=1;shadow=0;glass=1;labelBackgroundColor=#ffffff;sketch=1;fontSize=15;fontColor=#333333;strokeWidth=1;fillColor=#ffffff;gradientColor=none;align=center;verticalAlign=middle;" parent="1" vertex="1">
          <mxGeometry x="615" y="429.5" width="71" height="27" as="geometry" />
        </mxCell>
        <mxCell id="S7qlVdXXwg5bewVFXKOm-26" value="Channel" style="rounded=0;whiteSpace=wrap;html=1;shadow=0;glass=1;labelBackgroundColor=#ffffff;sketch=1;fontSize=15;fontColor=#333333;strokeWidth=1;fillColor=#ffffff;gradientColor=none;align=center;verticalAlign=middle;" parent="1" vertex="1">
          <mxGeometry x="625" y="439.5" width="71" height="27" as="geometry" />
        </mxCell>
        <mxCell id="S7qlVdXXwg5bewVFXKOm-27" value="Poller" style="text;strokeColor=none;fillColor=none;html=1;fontSize=19;fontStyle=1;verticalAlign=middle;align=center;shadow=0;glass=1;labelBackgroundColor=#ffffff;sketch=1;fontColor=#333333;" parent="1" vertex="1">
          <mxGeometry x="654" y="393.5" width="58" height="15" as="geometry" />
        </mxCell>
        <mxCell id="S7qlVdXXwg5bewVFXKOm-28" value="" style="html=1;aspect=fixed;strokeColor=none;shadow=0;align=center;verticalAlign=top;fillColor=#3B8DF1;shape=mxgraph.gcp2.arrows_system;glass=1;labelBackgroundColor=#ffffff;sketch=0;fontSize=20;fontColor=#333333;" parent="1" vertex="1">
          <mxGeometry x="712" y="419" width="33.68" height="32" as="geometry" />
        </mxCell>
        <mxCell id="S7qlVdXXwg5bewVFXKOm-29" value="" style="shape=ext;double=1;rounded=0;whiteSpace=wrap;html=1;shadow=0;glass=1;labelBackgroundColor=#ffffff;sketch=0;fontSize=20;fontColor=#333333;strokeWidth=1;fillColor=#ffffff;gradientColor=none;align=center;" parent="1" vertex="1">
          <mxGeometry x="594" y="501" width="159" height="89" as="geometry" />
        </mxCell>
        <mxCell id="S7qlVdXXwg5bewVFXKOm-30" value="Channel" style="rounded=0;whiteSpace=wrap;html=1;shadow=0;glass=1;labelBackgroundColor=#ffffff;sketch=1;fontSize=15;fontColor=#333333;strokeWidth=1;fillColor=#ffffff;gradientColor=none;align=center;verticalAlign=middle;" parent="1" vertex="1">
          <mxGeometry x="606" y="539" width="71" height="27" as="geometry" />
        </mxCell>
        <mxCell id="S7qlVdXXwg5bewVFXKOm-31" value="Channel" style="rounded=0;whiteSpace=wrap;html=1;shadow=0;glass=1;labelBackgroundColor=#ffffff;sketch=1;fontSize=15;fontColor=#333333;strokeWidth=1;fillColor=#ffffff;gradientColor=none;align=center;verticalAlign=middle;" parent="1" vertex="1">
          <mxGeometry x="615" y="547" width="71" height="27" as="geometry" />
        </mxCell>
        <mxCell id="S7qlVdXXwg5bewVFXKOm-32" value="Channel" style="rounded=0;whiteSpace=wrap;html=1;shadow=0;glass=1;labelBackgroundColor=#ffffff;sketch=1;fontSize=15;fontColor=#333333;strokeWidth=1;fillColor=#ffffff;gradientColor=none;align=center;verticalAlign=middle;" parent="1" vertex="1">
          <mxGeometry x="625" y="557" width="71" height="27" as="geometry" />
        </mxCell>
        <mxCell id="S7qlVdXXwg5bewVFXKOm-33" value="Poller" style="text;strokeColor=none;fillColor=none;html=1;fontSize=19;fontStyle=1;verticalAlign=middle;align=center;shadow=0;glass=1;labelBackgroundColor=#ffffff;sketch=1;fontColor=#333333;" parent="1" vertex="1">
          <mxGeometry x="654" y="511" width="58" height="15" as="geometry" />
        </mxCell>
        <mxCell id="S7qlVdXXwg5bewVFXKOm-34" value="" style="html=1;aspect=fixed;strokeColor=none;shadow=0;align=center;verticalAlign=top;fillColor=#3B8DF1;shape=mxgraph.gcp2.arrows_system;glass=1;labelBackgroundColor=#ffffff;sketch=0;fontSize=20;fontColor=#333333;" parent="1" vertex="1">
          <mxGeometry x="712" y="536.5" width="33.68" height="32" as="geometry" />
        </mxCell>
        <mxCell id="S7qlVdXXwg5bewVFXKOm-35" value="" style="endArrow=classic;html=1;shadow=1;fontSize=19;fontColor=#333333;startSize=6;endSize=6;strokeWidth=1;exitX=1;exitY=0.5;exitDx=0;exitDy=0;sketch=1;" parent="1" source="S7qlVdXXwg5bewVFXKOm-4" edge="1">
          <mxGeometry width="50" height="50" relative="1" as="geometry">
            <mxPoint x="507" y="385" as="sourcePoint" />
            <mxPoint x="567" y="345" as="targetPoint" />
          </mxGeometry>
        </mxCell>
        <mxCell id="S7qlVdXXwg5bewVFXKOm-36" value="" style="endArrow=classic;html=1;shadow=1;fontSize=19;fontColor=#333333;startSize=6;endSize=6;strokeWidth=1;exitX=1;exitY=0.5;exitDx=0;exitDy=0;sketch=1;" parent="1" edge="1">
          <mxGeometry width="50" height="50" relative="1" as="geometry">
            <mxPoint x="494.5" y="482" as="sourcePoint" />
            <mxPoint x="569.5" y="482" as="targetPoint" />
          </mxGeometry>
        </mxCell>
        <mxCell id="S7qlVdXXwg5bewVFXKOm-37" value="" style="endArrow=none;dashed=1;html=1;dashPattern=1 3;strokeWidth=2;shadow=1;fontSize=19;fontColor=#333333;startSize=6;endSize=6;sketch=0;" parent="1" edge="1">
          <mxGeometry width="50" height="50" relative="1" as="geometry">
            <mxPoint x="548" y="652" as="sourcePoint" />
            <mxPoint x="548" y="175" as="targetPoint" />
          </mxGeometry>
        </mxCell>
        <mxCell id="S7qlVdXXwg5bewVFXKOm-38" value="" style="rounded=0;whiteSpace=wrap;html=1;shadow=1;glass=1;labelBackgroundColor=#ffffff;sketch=1;fontSize=19;fontColor=#333333;strokeWidth=1;fillColor=#ffffff;gradientColor=none;align=center;verticalAlign=middle;" parent="1" vertex="1">
          <mxGeometry x="824" y="275" width="352" height="193" as="geometry" />
        </mxCell>
        <mxCell id="S7qlVdXXwg5bewVFXKOm-39" value="Executor" style="text;strokeColor=none;fillColor=none;html=1;fontSize=20;fontStyle=1;verticalAlign=middle;align=center;shadow=1;glass=1;labelBackgroundColor=#ffffff;sketch=1;fontColor=#333333;" parent="1" vertex="1">
          <mxGeometry x="827" y="279" width="95" height="30" as="geometry" />
        </mxCell>
        <mxCell id="S7qlVdXXwg5bewVFXKOm-40" value="Channel" style="rounded=0;whiteSpace=wrap;html=1;shadow=0;glass=1;labelBackgroundColor=#ffffff;sketch=1;fontSize=15;fontColor=#333333;strokeWidth=1;fillColor=#ffffff;gradientColor=none;align=center;verticalAlign=middle;" parent="1" vertex="1">
          <mxGeometry x="838" y="333" width="126" height="48" as="geometry" />
        </mxCell>
        <mxCell id="S7qlVdXXwg5bewVFXKOm-41" value="Channel" style="rounded=0;whiteSpace=wrap;html=1;shadow=0;glass=1;labelBackgroundColor=#ffffff;sketch=1;fontSize=15;fontColor=#333333;strokeWidth=1;fillColor=#ffffff;gradientColor=none;align=center;verticalAlign=middle;" parent="1" vertex="1">
          <mxGeometry x="855" y="350" width="126" height="48" as="geometry" />
        </mxCell>
        <mxCell id="S7qlVdXXwg5bewVFXKOm-42" value="" style="rounded=0;whiteSpace=wrap;html=1;shadow=0;glass=1;labelBackgroundColor=#ffffff;sketch=1;fontSize=15;fontColor=#333333;strokeWidth=1;fillColor=#ffffff;gradientColor=none;align=center;verticalAlign=middle;" parent="1" vertex="1">
          <mxGeometry x="869" y="369.5" width="126" height="48" as="geometry" />
        </mxCell>
        <mxCell id="S7qlVdXXwg5bewVFXKOm-43" value="SocketProcessor" style="rounded=0;whiteSpace=wrap;html=1;shadow=0;glass=1;labelBackgroundColor=#ffffff;sketch=1;fontSize=15;fontColor=#333333;strokeWidth=1;fillColor=#ffffff;gradientColor=none;align=center;verticalAlign=middle;" parent="1" vertex="1">
          <mxGeometry x="884" y="393.5" width="126" height="48" as="geometry" />
        </mxCell>
        <mxCell id="S7qlVdXXwg5bewVFXKOm-44" value="" style="html=1;aspect=fixed;strokeColor=none;shadow=0;align=center;verticalAlign=top;fillColor=#3B8DF1;shape=mxgraph.gcp2.arrows_system;glass=1;labelBackgroundColor=#ffffff;sketch=0;fontSize=20;fontColor=#333333;" parent="1" vertex="1">
          <mxGeometry x="1070" y="348" width="79.46" height="75.5" as="geometry" />
        </mxCell>
        <mxCell id="S7qlVdXXwg5bewVFXKOm-45" value="NioSocketWrapper" style="shape=ext;double=1;rounded=0;whiteSpace=wrap;html=1;shadow=1;glass=1;labelBackgroundColor=#ffffff;sketch=1;fontSize=20;fontColor=#333333;strokeWidth=1;fillColor=#ffffff;gradientColor=none;align=center;verticalAlign=middle;" parent="1" vertex="1">
          <mxGeometry x="839" y="516.5" width="248" height="72" as="geometry" />
        </mxCell>
        <mxCell id="S7qlVdXXwg5bewVFXKOm-46" value="" style="endArrow=classic;html=1;shadow=1;fontSize=20;fontColor=#333333;startSize=6;endSize=6;strokeWidth=1;exitX=0.5;exitY=1;exitDx=0;exitDy=0;sketch=1;" parent="1" source="S7qlVdXXwg5bewVFXKOm-43" edge="1">
          <mxGeometry width="50" height="50" relative="1" as="geometry">
            <mxPoint x="938" y="502" as="sourcePoint" />
            <mxPoint x="947" y="514" as="targetPoint" />
          </mxGeometry>
        </mxCell>
        <mxCell id="S7qlVdXXwg5bewVFXKOm-47" value="&lt;font style=&quot;font-size: 18px&quot;&gt;持有&lt;/font&gt;" style="text;strokeColor=none;fillColor=none;html=1;fontSize=24;fontStyle=1;verticalAlign=middle;align=center;shadow=1;glass=1;labelBackgroundColor=#ffffff;sketch=1;fontColor=#333333;" parent="1" vertex="1">
          <mxGeometry x="942" y="476" width="72" height="22" as="geometry" />
        </mxCell>
        <mxCell id="S7qlVdXXwg5bewVFXKOm-48" value="" style="endArrow=classic;html=1;shadow=1;fontSize=20;fontColor=#333333;startSize=6;endSize=6;strokeWidth=1;exitX=1;exitY=0.607;exitDx=0;exitDy=0;exitPerimeter=0;sketch=1;" parent="1" source="S7qlVdXXwg5bewVFXKOm-13" edge="1">
          <mxGeometry width="50" height="50" relative="1" as="geometry">
            <mxPoint x="758" y="366" as="sourcePoint" />
            <mxPoint x="816" y="385" as="targetPoint" />
          </mxGeometry>
        </mxCell>
        <mxCell id="S7qlVdXXwg5bewVFXKOm-49" value="" style="endArrow=classic;html=1;shadow=1;fontSize=20;fontColor=#333333;startSize=6;endSize=6;strokeWidth=1;sketch=1;" parent="1" edge="1">
          <mxGeometry width="50" height="50" relative="1" as="geometry">
            <mxPoint x="758" y="524" as="sourcePoint" />
            <mxPoint x="819" y="453" as="targetPoint" />
          </mxGeometry>
        </mxCell>
        <mxCell id="S7qlVdXXwg5bewVFXKOm-50" value="" style="endArrow=classic;html=1;shadow=1;fontSize=20;fontColor=#333333;startSize=6;endSize=6;strokeWidth=1;sketch=1;" parent="1" edge="1">
          <mxGeometry width="50" height="50" relative="1" as="geometry">
            <mxPoint x="759" y="428" as="sourcePoint" />
            <mxPoint x="814" y="421" as="targetPoint" />
          </mxGeometry>
        </mxCell>
        <mxCell id="S7qlVdXXwg5bewVFXKOm-51" value="Http1Processor" style="shape=ext;double=1;rounded=0;whiteSpace=wrap;html=1;shadow=1;glass=1;labelBackgroundColor=#ffffff;sketch=1;fontSize=20;fontColor=#333333;strokeWidth=1;fillColor=#ffffff;gradientColor=none;align=center;verticalAlign=middle;" parent="1" vertex="1">
          <mxGeometry x="1274" y="385.5" width="212" height="85" as="geometry" />
        </mxCell>
        <mxCell id="S7qlVdXXwg5bewVFXKOm-52" value="" style="endArrow=classic;html=1;shadow=1;fontSize=20;fontColor=#333333;startSize=6;endSize=6;strokeWidth=1;exitX=0.919;exitY=0.728;exitDx=0;exitDy=0;exitPerimeter=0;" parent="1" source="S7qlVdXXwg5bewVFXKOm-44" edge="1">
          <mxGeometry width="50" height="50" relative="1" as="geometry">
            <mxPoint x="1251" y="551" as="sourcePoint" />
            <mxPoint x="1269" y="430" as="targetPoint" />
          </mxGeometry>
        </mxCell>
        <mxCell id="S7qlVdXXwg5bewVFXKOm-53" value="" style="endArrow=classic;html=1;shadow=1;fontSize=20;fontColor=#333333;startSize=6;endSize=6;strokeWidth=1;exitX=0.138;exitY=0.636;exitDx=0;exitDy=0;exitPerimeter=0;dashed=1;" parent="1" source="S7qlVdXXwg5bewVFXKOm-44" edge="1">
          <mxGeometry width="50" height="50" relative="1" as="geometry">
            <mxPoint x="1211" y="570" as="sourcePoint" />
            <mxPoint x="1018" y="420" as="targetPoint" />
          </mxGeometry>
        </mxCell>
        <mxCell id="S7qlVdXXwg5bewVFXKOm-54" value="&lt;span style=&quot;font-size: 18px&quot;&gt;轮询&lt;/span&gt;" style="text;strokeColor=none;fillColor=none;html=1;fontSize=24;fontStyle=1;verticalAlign=middle;align=center;shadow=1;glass=1;labelBackgroundColor=#ffffff;sketch=1;fontColor=#333333;" parent="1" vertex="1">
          <mxGeometry x="1003" y="382.5" width="72" height="22" as="geometry" />
        </mxCell>
        <mxCell id="S7qlVdXXwg5bewVFXKOm-55" value="&lt;span style=&quot;font-size: 18px&quot;&gt;调用&lt;/span&gt;" style="text;strokeColor=none;fillColor=none;html=1;fontSize=24;fontStyle=1;verticalAlign=middle;align=center;shadow=1;glass=1;labelBackgroundColor=#ffffff;sketch=1;fontColor=#333333;" parent="1" vertex="1">
          <mxGeometry x="1176" y="385.5" width="72" height="22" as="geometry" />
        </mxCell>
        <mxCell id="S7qlVdXXwg5bewVFXKOm-56" value="" style="endArrow=none;dashed=1;html=1;dashPattern=1 3;strokeWidth=2;shadow=1;fontSize=19;fontColor=#333333;startSize=6;endSize=6;sketch=0;" parent="1" edge="1">
          <mxGeometry width="50" height="50" relative="1" as="geometry">
            <mxPoint x="788" y="652" as="sourcePoint" />
            <mxPoint x="788" y="175" as="targetPoint" />
          </mxGeometry>
        </mxCell>
        <mxCell id="S7qlVdXXwg5bewVFXKOm-57" value="" style="endArrow=none;dashed=1;html=1;dashPattern=1 3;strokeWidth=2;shadow=1;fontSize=19;fontColor=#333333;startSize=6;endSize=6;sketch=0;entryX=0.964;entryY=1.07;entryDx=0;entryDy=0;entryPerimeter=0;" parent="1" target="S7qlVdXXwg5bewVFXKOm-2" edge="1">
          <mxGeometry width="50" height="50" relative="1" as="geometry">
            <mxPoint x="324" y="653" as="sourcePoint" />
            <mxPoint x="324" y="197" as="targetPoint" />
          </mxGeometry>
        </mxCell>
        <mxCell id="S7qlVdXXwg5bewVFXKOm-58" value="" style="endArrow=classic;html=1;shadow=1;dashed=1;fontSize=20;fontColor=#333333;startSize=6;endSize=6;strokeWidth=1;exitX=0.5;exitY=1;exitDx=0;exitDy=0;edgeStyle=orthogonalEdgeStyle;" parent="1" source="S7qlVdXXwg5bewVFXKOm-45" edge="1">
          <mxGeometry width="50" height="50" relative="1" as="geometry">
            <mxPoint x="958" y="697" as="sourcePoint" />
            <mxPoint x="666" y="589" as="targetPoint" />
            <Array as="points">
              <mxPoint x="963" y="640" />
              <mxPoint x="666" y="640" />
            </Array>
          </mxGeometry>
        </mxCell>
        <mxCell id="S7qlVdXXwg5bewVFXKOm-59" value="&lt;font style=&quot;font-size: 18px&quot;&gt;持有&lt;/font&gt;" style="text;strokeColor=none;fillColor=none;html=1;fontSize=24;fontStyle=1;verticalAlign=middle;align=center;shadow=1;glass=1;labelBackgroundColor=#ffffff;sketch=1;fontColor=#333333;" parent="1" vertex="1">
          <mxGeometry x="775" y="613" width="72" height="22" as="geometry" />
        </mxCell>
        <mxCell id="S7qlVdXXwg5bewVFXKOm-60" value="" style="endArrow=classic;html=1;shadow=1;dashed=1;fontSize=20;fontColor=#333333;startSize=6;endSize=6;strokeWidth=1;exitX=0.5;exitY=1;exitDx=0;exitDy=0;edgeStyle=orthogonalEdgeStyle;" parent="1" source="S7qlVdXXwg5bewVFXKOm-51" edge="1">
          <mxGeometry width="50" height="50" relative="1" as="geometry">
            <mxPoint x="1376" y="573" as="sourcePoint" />
            <mxPoint x="1090" y="555" as="targetPoint" />
            <Array as="points">
              <mxPoint x="1380" y="555" />
            </Array>
          </mxGeometry>
        </mxCell>
        <mxCell id="S7qlVdXXwg5bewVFXKOm-61" value="&lt;span style=&quot;font-size: 18px&quot;&gt;读写&lt;/span&gt;" style="text;strokeColor=none;fillColor=none;html=1;fontSize=24;fontStyle=1;verticalAlign=middle;align=center;shadow=1;glass=1;labelBackgroundColor=#ffffff;sketch=1;fontColor=#333333;" parent="1" vertex="1">
          <mxGeometry x="1190" y="520" width="72" height="22" as="geometry" />
        </mxCell>
        <mxCell id="S7qlVdXXwg5bewVFXKOm-63" value="&lt;font style=&quot;font-size: 14px&quot;&gt;LimitLatch&lt;br&gt;限制连接数&lt;/font&gt;" style="text;html=1;strokeColor=none;fillColor=none;align=center;verticalAlign=middle;whiteSpace=wrap;rounded=0;shadow=1;glass=1;labelBackgroundColor=#ffffff;sketch=1;fontSize=15;fontColor=#333333;" parent="1" vertex="1">
          <mxGeometry x="195" y="172" width="111" height="44" as="geometry" />
        </mxCell>
        <mxCell id="S7qlVdXXwg5bewVFXKOm-64" value="&lt;font style=&quot;font-size: 14px&quot;&gt;Acceptor监听连接请求，将Channel交给其中一个Poller&lt;/font&gt;" style="text;html=1;strokeColor=none;fillColor=none;align=center;verticalAlign=middle;whiteSpace=wrap;rounded=0;shadow=1;glass=1;labelBackgroundColor=#ffffff;sketch=1;fontSize=15;fontColor=#333333;" parent="1" vertex="1">
          <mxGeometry x="330" y="172" width="211" height="47" as="geometry" />
        </mxCell>
        <mxCell id="S7qlVdXXwg5bewVFXKOm-66" value="&lt;font style=&quot;font-size: 14px&quot;&gt;Poller检测到Channel的I/O事件，当I/O就绪时，创建SocketProcessor给线程池处理&lt;/font&gt;" style="text;html=1;strokeColor=none;fillColor=none;align=left;verticalAlign=middle;whiteSpace=wrap;rounded=0;shadow=1;glass=1;labelBackgroundColor=#ffffff;sketch=1;fontSize=16;fontColor=#333333;" parent="1" vertex="1">
          <mxGeometry x="561" y="178" width="220" height="47" as="geometry" />
        </mxCell>
        <mxCell id="S7qlVdXXwg5bewVFXKOm-67" value="&lt;font style=&quot;font-size: 14px&quot;&gt;线程池执行SocketProcessor，调用Http11Processor处理请求，Http11Processor通过NioSocketWrapper进行数据的读写&lt;/font&gt;" style="text;html=1;strokeColor=none;fillColor=none;align=left;verticalAlign=middle;whiteSpace=wrap;rounded=0;shadow=1;glass=1;labelBackgroundColor=#ffffff;sketch=1;fontSize=16;fontColor=#333333;" parent="1" vertex="1">
          <mxGeometry x="827" y="176" width="299" height="49" as="geometry" />
        </mxCell>
        <mxCell id="S7qlVdXXwg5bewVFXKOm-68" value="1000W用户" style="rounded=0;whiteSpace=wrap;html=1;shadow=1;glass=1;labelBackgroundColor=none;sketch=1;fontSize=15;strokeWidth=1;fillColor=#f5f5f5;align=center;verticalAlign=middle;strokeColor=#666666;fontFamily=Comic Sans MS;labelBorderColor=none;fontColor=#666666;" parent="1" vertex="1">
          <mxGeometry x="1665" y="155" width="120" height="60" as="geometry" />
        </mxCell>
        <mxCell id="S7qlVdXXwg5bewVFXKOm-69" value="" style="endArrow=classic;html=1;shadow=1;dashed=1;fontFamily=Comic Sans MS;fontSize=15;startSize=6;endSize=6;strokeWidth=1;exitX=1;exitY=0.5;exitDx=0;exitDy=0;fontColor=#666666;" parent="1" source="S7qlVdXXwg5bewVFXKOm-68" edge="1">
          <mxGeometry width="50" height="50" relative="1" as="geometry">
            <mxPoint x="1855" y="223" as="sourcePoint" />
            <mxPoint x="1905" y="185" as="targetPoint" />
          </mxGeometry>
        </mxCell>
        <mxCell id="S7qlVdXXwg5bewVFXKOm-71" value="2/8定律" style="edgeLabel;html=1;align=center;verticalAlign=middle;resizable=0;points=[];fontSize=15;fontFamily=Comic Sans MS;fontColor=#666666;" parent="S7qlVdXXwg5bewVFXKOm-69" vertex="1" connectable="0">
          <mxGeometry x="-0.3775" y="-2" relative="1" as="geometry">
            <mxPoint x="19" y="-2" as="offset" />
          </mxGeometry>
        </mxCell>
        <mxCell id="S7qlVdXXwg5bewVFXKOm-75" value="" style="edgeStyle=orthogonalEdgeStyle;rounded=1;sketch=1;jumpSize=1;orthogonalLoop=1;jettySize=auto;html=1;shadow=1;dashed=1;fontFamily=Comic Sans MS;fontSize=15;startArrow=none;startFill=0;startSize=6;endSize=6;strokeWidth=1;fontColor=#666666;" parent="1" source="S7qlVdXXwg5bewVFXKOm-70" target="S7qlVdXXwg5bewVFXKOm-74" edge="1">
          <mxGeometry relative="1" as="geometry" />
        </mxCell>
        <mxCell id="S7qlVdXXwg5bewVFXKOm-76" value="每个用户50次点击" style="edgeLabel;html=1;align=center;verticalAlign=middle;resizable=0;points=[];fontSize=15;fontFamily=Comic Sans MS;fontColor=#666666;" parent="S7qlVdXXwg5bewVFXKOm-75" vertex="1" connectable="0">
          <mxGeometry x="-0.2363" y="-3" relative="1" as="geometry">
            <mxPoint x="13" y="-3" as="offset" />
          </mxGeometry>
        </mxCell>
        <mxCell id="S7qlVdXXwg5bewVFXKOm-70" value="每天20%用户访问，200W" style="whiteSpace=wrap;html=1;shadow=1;glass=1;labelBackgroundColor=none;sketch=1;fontFamily=Comic Sans MS;fontSize=15;strokeWidth=1;fillColor=#f5f5f5;align=center;verticalAlign=middle;strokeColor=#666666;fontColor=#666666;" parent="1" vertex="1">
          <mxGeometry x="1904" y="155" width="120" height="60" as="geometry" />
        </mxCell>
        <mxCell id="S7qlVdXXwg5bewVFXKOm-74" value="PV=1亿" style="whiteSpace=wrap;html=1;shadow=1;glass=1;labelBackgroundColor=none;sketch=1;fontFamily=Comic Sans MS;fontSize=15;strokeWidth=1;fillColor=#f5f5f5;align=center;verticalAlign=middle;strokeColor=#666666;fontColor=#666666;" parent="1" vertex="1">
          <mxGeometry x="2218" y="155" width="120" height="60" as="geometry" />
        </mxCell>
        <object label="" 的="" id="S7qlVdXXwg5bewVFXKOm-80">
          <mxCell style="rounded=1;sketch=1;jumpSize=1;orthogonalLoop=1;jettySize=auto;html=1;shadow=1;dashed=1;fontFamily=Comic Sans MS;fontSize=15;startArrow=none;startFill=0;startSize=6;endSize=6;strokeWidth=1;fontColor=#666666;" parent="1" source="S7qlVdXXwg5bewVFXKOm-77" target="S7qlVdXXwg5bewVFXKOm-79" edge="1">
            <mxGeometry relative="1" as="geometry" />
          </mxCell>
        </object>
        <mxCell id="S7qlVdXXwg5bewVFXKOm-82" value="24*20%" style="edgeLabel;html=1;align=center;verticalAlign=middle;resizable=0;points=[];fontSize=15;fontFamily=Comic Sans MS;fontColor=#666666;" parent="S7qlVdXXwg5bewVFXKOm-80" vertex="1" connectable="0">
          <mxGeometry x="0.4284" y="-2" relative="1" as="geometry">
            <mxPoint x="-26" y="-2" as="offset" />
          </mxGeometry>
        </mxCell>
        <mxCell id="S7qlVdXXwg5bewVFXKOm-77" value="一天24小时，根据2/8定律，每天用户活跃时间为20%" style="whiteSpace=wrap;html=1;shadow=1;glass=1;labelBackgroundColor=none;sketch=1;fontFamily=Comic Sans MS;fontSize=15;strokeWidth=1;fillColor=#f5f5f5;align=center;verticalAlign=middle;strokeColor=#666666;fontColor=#666666;" parent="1" vertex="1">
          <mxGeometry x="1665" y="302" width="158" height="79" as="geometry" />
        </mxCell>
        <mxCell id="S7qlVdXXwg5bewVFXKOm-83" value="" style="edgeStyle=none;sketch=1;jumpSize=1;orthogonalLoop=1;jettySize=auto;html=1;shadow=1;dashed=1;fontFamily=Comic Sans MS;fontSize=15;startFill=0;startSize=6;endSize=6;strokeWidth=1;fontColor=#666666;" parent="1" source="S7qlVdXXwg5bewVFXKOm-79" target="S7qlVdXXwg5bewVFXKOm-81" edge="1">
          <mxGeometry relative="1" as="geometry" />
        </mxCell>
        <mxCell id="S7qlVdXXwg5bewVFXKOm-79" value="大部分用户活跃时间集中在5小时以内" style="whiteSpace=wrap;html=1;shadow=1;glass=1;labelBackgroundColor=none;sketch=1;fontFamily=Comic Sans MS;fontSize=15;strokeWidth=1;fillColor=#f5f5f5;align=center;verticalAlign=middle;strokeColor=#666666;fontColor=#666666;" parent="1" vertex="1">
          <mxGeometry x="1915" y="302" width="158" height="79" as="geometry" />
        </mxCell>
        <mxCell id="S7qlVdXXwg5bewVFXKOm-85" value="" style="edgeStyle=none;sketch=1;jumpSize=1;orthogonalLoop=1;jettySize=auto;html=1;shadow=1;dashed=1;fontFamily=Comic Sans MS;fontSize=15;startFill=0;startSize=6;endSize=6;strokeWidth=1;fontColor=#666666;" parent="1" source="S7qlVdXXwg5bewVFXKOm-81" target="S7qlVdXXwg5bewVFXKOm-84" edge="1">
          <mxGeometry relative="1" as="geometry" />
        </mxCell>
        <mxCell id="S7qlVdXXwg5bewVFXKOm-81" value="&lt;span&gt;大部分用户根据2/8定律表示80%&lt;br&gt;1亿PV*80%=8000W点击&lt;br&gt;&lt;br&gt;&lt;/span&gt;" style="whiteSpace=wrap;html=1;shadow=1;glass=1;labelBackgroundColor=none;sketch=1;fontFamily=Comic Sans MS;fontSize=15;strokeWidth=1;fillColor=#f5f5f5;align=center;verticalAlign=middle;strokeColor=#666666;fontColor=#666666;" parent="1" vertex="1">
          <mxGeometry x="2136" y="298" width="184" height="79" as="geometry" />
        </mxCell>
        <mxCell id="S7qlVdXXwg5bewVFXKOm-87" value="" style="edgeStyle=none;sketch=1;jumpSize=1;orthogonalLoop=1;jettySize=auto;html=1;shadow=1;dashed=1;fontFamily=Comic Sans MS;fontSize=15;startFill=0;startSize=6;endSize=6;strokeWidth=1;fontColor=#666666;" parent="1" source="S7qlVdXXwg5bewVFXKOm-84" target="S7qlVdXXwg5bewVFXKOm-86" edge="1">
          <mxGeometry relative="1" as="geometry" />
        </mxCell>
        <mxCell id="S7qlVdXXwg5bewVFXKOm-84" value="&lt;span&gt;5小时内有8000W点击，每秒大于4500个请求&lt;br&gt;&lt;/span&gt;" style="whiteSpace=wrap;html=1;shadow=1;glass=1;labelBackgroundColor=none;sketch=1;fontFamily=Comic Sans MS;fontSize=15;strokeWidth=1;fillColor=#eeeeee;align=center;verticalAlign=middle;strokeColor=#B3B3B3;" parent="1" vertex="1">
          <mxGeometry x="2397" y="298" width="158" height="79" as="geometry" />
        </mxCell>
        <mxCell id="S7qlVdXXwg5bewVFXKOm-89" value="" style="edgeStyle=none;sketch=1;jumpSize=1;orthogonalLoop=1;jettySize=auto;html=1;shadow=1;dashed=1;fontFamily=Comic Sans MS;fontSize=15;startFill=0;startSize=6;endSize=6;strokeWidth=1;fontColor=#666666;" parent="1" source="S7qlVdXXwg5bewVFXKOm-86" target="S7qlVdXXwg5bewVFXKOm-88" edge="1">
          <mxGeometry relative="1" as="geometry" />
        </mxCell>
        <mxCell id="S7qlVdXXwg5bewVFXKOm-86" value="&lt;span&gt;请求有可能集中访问，所以访问峰值是平均数的3~4倍（经验值）&lt;br&gt;&lt;/span&gt;" style="whiteSpace=wrap;html=1;shadow=1;glass=1;labelBackgroundColor=none;sketch=1;fontFamily=Comic Sans MS;fontSize=15;strokeWidth=1;fillColor=#f5f5f5;align=center;verticalAlign=middle;strokeColor=#666666;fontColor=#666666;" parent="1" vertex="1">
          <mxGeometry x="2654" y="298" width="158" height="79" as="geometry" />
        </mxCell>
        <mxCell id="S7qlVdXXwg5bewVFXKOm-88" value="&lt;span&gt;4500*4=18000&lt;br&gt;每秒需要支撑18000个请求&lt;br&gt;&lt;/span&gt;" style="whiteSpace=wrap;html=1;shadow=1;glass=1;labelBackgroundColor=none;sketch=1;fontFamily=Comic Sans MS;fontSize=15;strokeWidth=1;fillColor=#f5f5f5;align=center;verticalAlign=middle;strokeColor=#666666;fontColor=#666666;" parent="1" vertex="1">
          <mxGeometry x="2905" y="302" width="158" height="79" as="geometry" />
        </mxCell>
        <mxCell id="buNIEbbVZXxZWFiXqA3j-1" value="index.html" style="rounded=0;whiteSpace=wrap;html=1;glass=1;sketch=1;shadow=1;strokeColor=#36393d;fillColor=#cdeb8b;" parent="1" vertex="1">
          <mxGeometry x="1971" y="736" width="120" height="60" as="geometry" />
        </mxCell>
        <mxCell id="buNIEbbVZXxZWFiXqA3j-4" value="" style="fontColor=#0066CC;verticalAlign=top;verticalLabelPosition=bottom;labelPosition=center;align=center;html=1;outlineConnect=0;fillColor=#CCCCCC;strokeColor=#6881B3;gradientColor=none;gradientDirection=north;strokeWidth=2;shape=mxgraph.networks.pc;" parent="1" vertex="1">
          <mxGeometry x="1765" y="731" width="100" height="70" as="geometry" />
        </mxCell>
        <mxCell id="buNIEbbVZXxZWFiXqA3j-5" value="" style="endArrow=classic;html=1;sketch=1;shadow=0;" parent="1" target="buNIEbbVZXxZWFiXqA3j-1" edge="1">
          <mxGeometry width="50" height="50" relative="1" as="geometry">
            <mxPoint x="1869" y="766" as="sourcePoint" />
            <mxPoint x="2032" y="631" as="targetPoint" />
          </mxGeometry>
        </mxCell>
        <mxCell id="buNIEbbVZXxZWFiXqA3j-6" value="" style="rounded=0;whiteSpace=wrap;html=1;shadow=1;glass=1;sketch=1;strokeColor=#36393d;fillColor=#cce5ff;" parent="1" vertex="1">
          <mxGeometry x="2231" y="723" width="243" height="90" as="geometry" />
        </mxCell>
        <mxCell id="buNIEbbVZXxZWFiXqA3j-8" value="Tomcat" style="text;strokeColor=none;fillColor=none;html=1;fontSize=24;fontStyle=1;verticalAlign=middle;align=center;shadow=1;glass=1;sketch=1;" parent="1" vertex="1">
          <mxGeometry x="2301" y="746" width="100" height="40" as="geometry" />
        </mxCell>
        <mxCell id="buNIEbbVZXxZWFiXqA3j-9" value="" style="endArrow=classic;html=1;shadow=0;exitX=1;exitY=0.5;exitDx=0;exitDy=0;sketch=1;" parent="1" source="buNIEbbVZXxZWFiXqA3j-1" edge="1">
          <mxGeometry width="50" height="50" relative="1" as="geometry">
            <mxPoint x="2132" y="785" as="sourcePoint" />
            <mxPoint x="2227" y="766" as="targetPoint" />
          </mxGeometry>
        </mxCell>
        <mxCell id="buNIEbbVZXxZWFiXqA3j-10" value="" style="endArrow=classic;html=1;shadow=0;exitX=-0.016;exitY=0.702;exitDx=0;exitDy=0;exitPerimeter=0;sketch=1;" parent="1" source="buNIEbbVZXxZWFiXqA3j-6" edge="1">
          <mxGeometry width="50" height="50" relative="1" as="geometry">
            <mxPoint x="2181" y="906" as="sourcePoint" />
            <mxPoint x="2093" y="788" as="targetPoint" />
          </mxGeometry>
        </mxCell>
        <mxCell id="buNIEbbVZXxZWFiXqA3j-11" value="" style="endArrow=classic;html=1;shadow=0;sketch=1;" parent="1" edge="1">
          <mxGeometry width="50" height="50" relative="1" as="geometry">
            <mxPoint x="1973" y="788" as="sourcePoint" />
            <mxPoint x="1865" y="788.04" as="targetPoint" />
          </mxGeometry>
        </mxCell>
        <mxCell id="buNIEbbVZXxZWFiXqA3j-12" value="" style="endArrow=classic;html=1;shadow=0;exitX=0.692;exitY=1.05;exitDx=0;exitDy=0;exitPerimeter=0;edgeStyle=orthogonalEdgeStyle;sketch=1;" parent="1" source="buNIEbbVZXxZWFiXqA3j-1" edge="1">
          <mxGeometry width="50" height="50" relative="1" as="geometry">
            <mxPoint x="2069" y="896" as="sourcePoint" />
            <mxPoint x="2366" y="830" as="targetPoint" />
            <Array as="points">
              <mxPoint x="2054" y="864" />
              <mxPoint x="2366" y="864" />
            </Array>
          </mxGeometry>
        </mxCell>
        <mxCell id="buNIEbbVZXxZWFiXqA3j-13" value="1. 加载banner信息" style="edgeLabel;html=1;align=center;verticalAlign=middle;resizable=0;points=[];" parent="buNIEbbVZXxZWFiXqA3j-12" vertex="1" connectable="0">
          <mxGeometry x="-0.0998" y="-1" relative="1" as="geometry">
            <mxPoint as="offset" />
          </mxGeometry>
        </mxCell>
        <mxCell id="buNIEbbVZXxZWFiXqA3j-14" value="" style="endArrow=classic;html=1;shadow=0;exitX=0.35;exitY=1.017;exitDx=0;exitDy=0;exitPerimeter=0;entryX=0.707;entryY=1.015;entryDx=0;entryDy=0;entryPerimeter=0;edgeStyle=orthogonalEdgeStyle;sketch=1;" parent="1" source="buNIEbbVZXxZWFiXqA3j-1" target="buNIEbbVZXxZWFiXqA3j-6" edge="1">
          <mxGeometry width="50" height="50" relative="1" as="geometry">
            <mxPoint x="2016" y="910" as="sourcePoint" />
            <mxPoint x="2066" y="860" as="targetPoint" />
            <Array as="points">
              <mxPoint x="2013" y="903" />
              <mxPoint x="2405" y="903" />
            </Array>
          </mxGeometry>
        </mxCell>
        <mxCell id="buNIEbbVZXxZWFiXqA3j-15" value="2. 加载课程信息" style="edgeLabel;html=1;align=center;verticalAlign=middle;resizable=0;points=[];" parent="buNIEbbVZXxZWFiXqA3j-14" vertex="1" connectable="0">
          <mxGeometry x="-0.1293" y="1" relative="1" as="geometry">
            <mxPoint as="offset" />
          </mxGeometry>
        </mxCell>
        <mxCell id="buNIEbbVZXxZWFiXqA3j-16" value="1TPS" style="text;html=1;strokeColor=none;fillColor=none;align=center;verticalAlign=middle;whiteSpace=wrap;rounded=0;shadow=1;glass=1;sketch=1;fontStyle=1" parent="1" vertex="1">
          <mxGeometry x="2126" y="738" width="40" height="20" as="geometry" />
        </mxCell>
        <mxCell id="buNIEbbVZXxZWFiXqA3j-17" value="2QPS" style="text;html=1;strokeColor=none;fillColor=none;align=center;verticalAlign=middle;whiteSpace=wrap;rounded=0;shadow=1;glass=1;sketch=1;fontStyle=1" parent="1" vertex="1">
          <mxGeometry x="2064" y="835" width="40" height="20" as="geometry" />
        </mxCell>
        <mxCell id="l75y9oXwlMvh9T1f_pYU-1" value="" style="fontColor=#0066CC;verticalAlign=top;verticalLabelPosition=bottom;labelPosition=center;align=center;html=1;outlineConnect=0;fillColor=#CCCCCC;strokeColor=#6881B3;gradientColor=none;gradientDirection=north;strokeWidth=2;shape=mxgraph.networks.pc;" parent="1" vertex="1">
          <mxGeometry x="2621" y="762" width="100" height="70" as="geometry" />
        </mxCell>
        <mxCell id="l75y9oXwlMvh9T1f_pYU-2" value="Tomcat" style="rounded=0;whiteSpace=wrap;html=1;shadow=1;glass=1;sketch=1;strokeColor=#36393d;fontSize=22;fillColor=#cce5ff;" parent="1" vertex="1">
          <mxGeometry x="3160" y="629" width="120" height="60" as="geometry" />
        </mxCell>
        <mxCell id="l75y9oXwlMvh9T1f_pYU-3" value="Tomcat" style="rounded=0;whiteSpace=wrap;html=1;shadow=1;glass=1;sketch=1;strokeColor=#36393d;fontSize=22;fillColor=#cce5ff;" parent="1" vertex="1">
          <mxGeometry x="3160" y="722" width="120" height="60" as="geometry" />
        </mxCell>
        <mxCell id="l75y9oXwlMvh9T1f_pYU-4" value="Tomcat" style="rounded=0;whiteSpace=wrap;html=1;shadow=1;glass=1;sketch=1;strokeColor=#36393d;fontSize=22;fillColor=#cce5ff;" parent="1" vertex="1">
          <mxGeometry x="3160" y="815" width="120" height="60" as="geometry" />
        </mxCell>
        <mxCell id="l75y9oXwlMvh9T1f_pYU-5" value="Tomcat" style="rounded=0;whiteSpace=wrap;html=1;shadow=1;glass=1;sketch=1;strokeColor=#36393d;fontSize=22;fillColor=#cce5ff;" parent="1" vertex="1">
          <mxGeometry x="3160" y="902" width="120" height="60" as="geometry" />
        </mxCell>
        <mxCell id="l75y9oXwlMvh9T1f_pYU-6" value="&lt;font style=&quot;font-size: 15px&quot;&gt;500并发&lt;/font&gt;" style="text;html=1;strokeColor=none;fillColor=none;align=center;verticalAlign=middle;whiteSpace=wrap;rounded=0;shadow=1;glass=1;sketch=1;fontSize=22;" parent="1" vertex="1">
          <mxGeometry x="3185" y="601" width="70" height="25" as="geometry" />
        </mxCell>
        <mxCell id="l75y9oXwlMvh9T1f_pYU-7" value="&lt;font style=&quot;font-size: 15px&quot;&gt;500并发&lt;/font&gt;" style="text;html=1;strokeColor=none;fillColor=none;align=center;verticalAlign=middle;whiteSpace=wrap;rounded=0;shadow=1;glass=1;sketch=1;fontSize=22;" parent="1" vertex="1">
          <mxGeometry x="3185" y="697" width="70" height="25" as="geometry" />
        </mxCell>
        <mxCell id="l75y9oXwlMvh9T1f_pYU-8" value="&lt;font style=&quot;font-size: 15px&quot;&gt;500并发&lt;/font&gt;" style="text;html=1;strokeColor=none;fillColor=none;align=center;verticalAlign=middle;whiteSpace=wrap;rounded=0;shadow=1;glass=1;sketch=1;fontSize=22;" parent="1" vertex="1">
          <mxGeometry x="3185" y="790" width="70" height="25" as="geometry" />
        </mxCell>
        <mxCell id="l75y9oXwlMvh9T1f_pYU-9" value="&lt;font style=&quot;font-size: 15px&quot;&gt;500并发&lt;/font&gt;" style="text;html=1;strokeColor=none;fillColor=none;align=center;verticalAlign=middle;whiteSpace=wrap;rounded=0;shadow=1;glass=1;sketch=1;fontSize=22;" parent="1" vertex="1">
          <mxGeometry x="3185" y="877" width="70" height="25" as="geometry" />
        </mxCell>
        <mxCell id="l75y9oXwlMvh9T1f_pYU-10" value="LVS" style="shape=ext;double=1;rounded=0;whiteSpace=wrap;html=1;shadow=1;glass=1;sketch=1;fontSize=22;strokeColor=#36393d;fillColor=#ffcc99;" parent="1" vertex="1">
          <mxGeometry x="2812" y="714" width="118" height="56" as="geometry" />
        </mxCell>
        <mxCell id="l75y9oXwlMvh9T1f_pYU-11" value="LVS" style="shape=ext;double=1;rounded=0;whiteSpace=wrap;html=1;shadow=1;glass=1;sketch=1;fontSize=22;strokeColor=#36393d;fillColor=#ffcc99;" parent="1" vertex="1">
          <mxGeometry x="2812" y="832" width="118" height="56" as="geometry" />
        </mxCell>
        <mxCell id="l75y9oXwlMvh9T1f_pYU-12" value="" style="endArrow=classic;html=1;shadow=0;fontSize=22;entryX=0.703;entryY=1.107;entryDx=0;entryDy=0;entryPerimeter=0;sketch=1;" parent="1" target="l75y9oXwlMvh9T1f_pYU-10" edge="1">
          <mxGeometry width="50" height="50" relative="1" as="geometry">
            <mxPoint x="2895" y="828" as="sourcePoint" />
            <mxPoint x="2927" y="776" as="targetPoint" />
          </mxGeometry>
        </mxCell>
        <mxCell id="l75y9oXwlMvh9T1f_pYU-13" value="" style="endArrow=classic;html=1;shadow=0;fontSize=22;entryX=0.339;entryY=0.018;entryDx=0;entryDy=0;entryPerimeter=0;sketch=1;" parent="1" target="l75y9oXwlMvh9T1f_pYU-11" edge="1">
          <mxGeometry width="50" height="50" relative="1" as="geometry">
            <mxPoint x="2852" y="780" as="sourcePoint" />
            <mxPoint x="2872" y="770" as="targetPoint" />
          </mxGeometry>
        </mxCell>
        <mxCell id="l75y9oXwlMvh9T1f_pYU-14" value="高可用" style="text;html=1;strokeColor=none;fillColor=none;align=center;verticalAlign=middle;whiteSpace=wrap;rounded=0;shadow=1;glass=1;sketch=1;fontSize=17;" parent="1" vertex="1">
          <mxGeometry x="2836" y="803" width="85" height="10" as="geometry" />
        </mxCell>
        <mxCell id="l75y9oXwlMvh9T1f_pYU-16" value="" style="shape=image;html=1;verticalAlign=top;verticalLabelPosition=bottom;labelBackgroundColor=#ffffff;imageAspect=0;aspect=fixed;image=https://cdn4.iconfinder.com/data/icons/logos-brands-5/24/nginx-128.png;shadow=1;glass=1;sketch=1;fontSize=17;strokeColor=#333333;" parent="1" vertex="1">
          <mxGeometry x="3004" y="681" width="63" height="63" as="geometry" />
        </mxCell>
        <mxCell id="l75y9oXwlMvh9T1f_pYU-17" value="" style="shape=image;html=1;verticalAlign=top;verticalLabelPosition=bottom;labelBackgroundColor=#ffffff;imageAspect=0;aspect=fixed;image=https://cdn4.iconfinder.com/data/icons/logos-brands-5/24/nginx-128.png;shadow=1;glass=1;sketch=1;fontSize=17;strokeColor=#333333;" parent="1" vertex="1">
          <mxGeometry x="3004" y="771" width="63" height="63" as="geometry" />
        </mxCell>
        <mxCell id="l75y9oXwlMvh9T1f_pYU-18" value="" style="shape=image;html=1;verticalAlign=top;verticalLabelPosition=bottom;labelBackgroundColor=#ffffff;imageAspect=0;aspect=fixed;image=https://cdn4.iconfinder.com/data/icons/logos-brands-5/24/nginx-128.png;shadow=1;glass=1;sketch=1;fontSize=17;strokeColor=#333333;" parent="1" vertex="1">
          <mxGeometry x="3004" y="864" width="63" height="63" as="geometry" />
        </mxCell>
        <mxCell id="l75y9oXwlMvh9T1f_pYU-19" value="" style="endArrow=classic;html=1;shadow=0;fontSize=17;sketch=1;" parent="1" edge="1">
          <mxGeometry width="50" height="50" relative="1" as="geometry">
            <mxPoint x="2946" y="780" as="sourcePoint" />
            <mxPoint x="3010" y="735" as="targetPoint" />
          </mxGeometry>
        </mxCell>
        <mxCell id="l75y9oXwlMvh9T1f_pYU-20" value="" style="endArrow=classic;html=1;shadow=0;fontSize=17;sketch=1;" parent="1" edge="1">
          <mxGeometry width="50" height="50" relative="1" as="geometry">
            <mxPoint x="2946" y="802" as="sourcePoint" />
            <mxPoint x="3002" y="815" as="targetPoint" />
          </mxGeometry>
        </mxCell>
        <mxCell id="l75y9oXwlMvh9T1f_pYU-21" value="" style="endArrow=classic;html=1;shadow=0;fontSize=17;sketch=1;" parent="1" edge="1">
          <mxGeometry width="50" height="50" relative="1" as="geometry">
            <mxPoint x="2941" y="826" as="sourcePoint" />
            <mxPoint x="2997" y="880" as="targetPoint" />
          </mxGeometry>
        </mxCell>
        <mxCell id="l75y9oXwlMvh9T1f_pYU-22" value="" style="endArrow=classic;html=1;shadow=0;fontSize=17;sketch=1;" parent="1" edge="1">
          <mxGeometry width="50" height="50" relative="1" as="geometry">
            <mxPoint x="3077" y="780" as="sourcePoint" />
            <mxPoint x="3152" y="676" as="targetPoint" />
          </mxGeometry>
        </mxCell>
        <mxCell id="l75y9oXwlMvh9T1f_pYU-23" value="" style="endArrow=classic;html=1;shadow=0;fontSize=17;sketch=1;" parent="1" edge="1">
          <mxGeometry width="50" height="50" relative="1" as="geometry">
            <mxPoint x="3078" y="792" as="sourcePoint" />
            <mxPoint x="3154" y="782" as="targetPoint" />
          </mxGeometry>
        </mxCell>
        <mxCell id="l75y9oXwlMvh9T1f_pYU-24" value="" style="endArrow=classic;html=1;shadow=0;fontSize=17;sketch=1;" parent="1" edge="1">
          <mxGeometry width="50" height="50" relative="1" as="geometry">
            <mxPoint x="3079" y="803" as="sourcePoint" />
            <mxPoint x="3147" y="859" as="targetPoint" />
          </mxGeometry>
        </mxCell>
        <mxCell id="l75y9oXwlMvh9T1f_pYU-25" value="" style="endArrow=classic;html=1;shadow=0;fontSize=17;sketch=1;" parent="1" edge="1">
          <mxGeometry width="50" height="50" relative="1" as="geometry">
            <mxPoint x="3079" y="818" as="sourcePoint" />
            <mxPoint x="3151" y="928" as="targetPoint" />
          </mxGeometry>
        </mxCell>
        <mxCell id="l75y9oXwlMvh9T1f_pYU-26" value="" style="endArrow=classic;html=1;shadow=0;fontSize=17;sketch=1;" parent="1" source="l75y9oXwlMvh9T1f_pYU-1" edge="1">
          <mxGeometry width="50" height="50" relative="1" as="geometry">
            <mxPoint x="2721" y="847" as="sourcePoint" />
            <mxPoint x="2791.710678118655" y="797" as="targetPoint" />
          </mxGeometry>
        </mxCell>
        <mxCell id="l75y9oXwlMvh9T1f_pYU-57" value="" style="shape=table;html=1;whiteSpace=wrap;startSize=0;container=1;collapsible=0;childLayout=tableLayout;shadow=1;glass=1;sketch=1;fontSize=17;rounded=0;spacingRight=2;fontFamily=Verdana;" parent="1" vertex="1">
          <mxGeometry x="3446" y="248.5" width="984" height="583" as="geometry" />
        </mxCell>
        <mxCell id="l75y9oXwlMvh9T1f_pYU-58" value="" style="shape=partialRectangle;html=1;whiteSpace=wrap;collapsible=0;dropTarget=0;pointerEvents=0;fillColor=none;top=0;left=0;bottom=0;right=0;points=[[0,0.5],[1,0.5]];portConstraint=eastwest;" parent="l75y9oXwlMvh9T1f_pYU-57" vertex="1">
          <mxGeometry width="984" height="83" as="geometry" />
        </mxCell>
        <mxCell id="l75y9oXwlMvh9T1f_pYU-59" value="SLA项" style="shape=partialRectangle;html=1;whiteSpace=wrap;connectable=0;fillColor=#cce5ff;top=0;left=0;bottom=0;right=0;overflow=hidden;fontStyle=1;fontSize=17;fontFamily=Comic Sans MS;strokeColor=#36393d;sketch=1;" parent="l75y9oXwlMvh9T1f_pYU-58" vertex="1">
          <mxGeometry width="164" height="83" as="geometry" />
        </mxCell>
        <mxCell id="l75y9oXwlMvh9T1f_pYU-60" value="含义" style="shape=partialRectangle;html=1;whiteSpace=wrap;connectable=0;fillColor=#cce5ff;top=0;left=0;bottom=0;right=0;overflow=hidden;fontStyle=1;fontSize=17;fontFamily=Comic Sans MS;strokeColor=#36393d;sketch=1;" parent="l75y9oXwlMvh9T1f_pYU-58" vertex="1">
          <mxGeometry x="164" width="447" height="83" as="geometry" />
        </mxCell>
        <mxCell id="l75y9oXwlMvh9T1f_pYU-82" value="测量方法" style="shape=partialRectangle;html=1;whiteSpace=wrap;connectable=0;fillColor=#cce5ff;top=0;left=0;bottom=0;right=0;overflow=hidden;fontStyle=1;fontSize=17;fontFamily=Comic Sans MS;strokeColor=#36393d;sketch=1;" parent="l75y9oXwlMvh9T1f_pYU-58" vertex="1">
          <mxGeometry x="611" width="131" height="83" as="geometry" />
        </mxCell>
        <mxCell id="l75y9oXwlMvh9T1f_pYU-87" value="示例" style="shape=partialRectangle;html=1;whiteSpace=wrap;connectable=0;fillColor=#cce5ff;top=0;left=0;bottom=0;right=0;overflow=hidden;fontStyle=1;fontSize=17;fontFamily=Comic Sans MS;strokeColor=#36393d;sketch=1;" parent="l75y9oXwlMvh9T1f_pYU-58" vertex="1">
          <mxGeometry x="742" width="80" height="83" as="geometry" />
        </mxCell>
        <mxCell id="l75y9oXwlMvh9T1f_pYU-92" value="服务级别" style="shape=partialRectangle;html=1;whiteSpace=wrap;connectable=0;fillColor=#cce5ff;top=0;left=0;bottom=0;right=0;overflow=hidden;fontStyle=1;fontSize=17;fontFamily=Comic Sans MS;strokeColor=#36393d;sketch=1;" parent="l75y9oXwlMvh9T1f_pYU-58" vertex="1">
          <mxGeometry x="822" width="80" height="83" as="geometry" />
        </mxCell>
        <mxCell id="l75y9oXwlMvh9T1f_pYU-97" value="接口级别" style="shape=partialRectangle;html=1;whiteSpace=wrap;connectable=0;fillColor=#cce5ff;top=0;left=0;bottom=0;right=0;overflow=hidden;fontStyle=1;fontSize=17;fontFamily=Comic Sans MS;strokeColor=#36393d;sketch=1;" parent="l75y9oXwlMvh9T1f_pYU-58" vertex="1">
          <mxGeometry x="902" width="82" height="83" as="geometry" />
        </mxCell>
        <mxCell id="l75y9oXwlMvh9T1f_pYU-70" value="" style="shape=partialRectangle;html=1;whiteSpace=wrap;collapsible=0;dropTarget=0;pointerEvents=0;fillColor=none;top=0;left=0;bottom=0;right=0;points=[[0,0.5],[1,0.5]];portConstraint=eastwest;" parent="l75y9oXwlMvh9T1f_pYU-57" vertex="1">
          <mxGeometry y="83" width="984" height="83" as="geometry" />
        </mxCell>
        <mxCell id="l75y9oXwlMvh9T1f_pYU-71" value="请求成功率" style="shape=partialRectangle;html=1;whiteSpace=wrap;connectable=0;fillColor=none;top=0;left=0;bottom=0;right=0;overflow=hidden;fontStyle=1;fontSize=14;" parent="l75y9oXwlMvh9T1f_pYU-70" vertex="1">
          <mxGeometry width="164" height="83" as="geometry" />
        </mxCell>
        <mxCell id="l75y9oXwlMvh9T1f_pYU-72" value="测量周期内服务成功应答的请求占总请求数的百分比" style="shape=partialRectangle;html=1;whiteSpace=wrap;connectable=0;fillColor=none;top=0;left=0;bottom=0;right=0;overflow=hidden;sketch=0;fontFamily=Verdana;align=left;spacingLeft=7;spacingRight=2;" parent="l75y9oXwlMvh9T1f_pYU-70" vertex="1">
          <mxGeometry x="164" width="447" height="83" as="geometry" />
        </mxCell>
        <mxCell id="l75y9oXwlMvh9T1f_pYU-83" value="(成功应答请求数/总请求数)*100" style="shape=partialRectangle;html=1;whiteSpace=wrap;connectable=0;fillColor=none;top=0;left=0;bottom=0;right=0;overflow=hidden;fontFamily=Verdana;align=left;spacingLeft=6;" parent="l75y9oXwlMvh9T1f_pYU-70" vertex="1">
          <mxGeometry x="611" width="131" height="83" as="geometry" />
        </mxCell>
        <mxCell id="l75y9oXwlMvh9T1f_pYU-88" value="&amp;gt;99%" style="shape=partialRectangle;html=1;whiteSpace=wrap;connectable=0;fillColor=none;top=0;left=0;bottom=0;right=0;overflow=hidden;fontFamily=Verdana;" parent="l75y9oXwlMvh9T1f_pYU-70" vertex="1">
          <mxGeometry x="742" width="80" height="83" as="geometry" />
        </mxCell>
        <mxCell id="l75y9oXwlMvh9T1f_pYU-93" value="是" style="shape=partialRectangle;html=1;whiteSpace=wrap;connectable=0;fillColor=none;top=0;left=0;bottom=0;right=0;overflow=hidden;fontFamily=Verdana;" parent="l75y9oXwlMvh9T1f_pYU-70" vertex="1">
          <mxGeometry x="822" width="80" height="83" as="geometry" />
        </mxCell>
        <mxCell id="l75y9oXwlMvh9T1f_pYU-98" value="否" style="shape=partialRectangle;html=1;whiteSpace=wrap;connectable=0;fillColor=none;top=0;left=0;bottom=0;right=0;overflow=hidden;fontFamily=Verdana;" parent="l75y9oXwlMvh9T1f_pYU-70" vertex="1">
          <mxGeometry x="902" width="82" height="83" as="geometry" />
        </mxCell>
        <mxCell id="l75y9oXwlMvh9T1f_pYU-62" value="" style="shape=partialRectangle;html=1;whiteSpace=wrap;collapsible=0;dropTarget=0;pointerEvents=0;fillColor=none;top=0;left=0;bottom=0;right=0;points=[[0,0.5],[1,0.5]];portConstraint=eastwest;" parent="l75y9oXwlMvh9T1f_pYU-57" vertex="1">
          <mxGeometry y="166" width="984" height="171" as="geometry" />
        </mxCell>
        <mxCell id="l75y9oXwlMvh9T1f_pYU-63" value="可用性" style="shape=partialRectangle;html=1;whiteSpace=wrap;connectable=0;fillColor=none;top=0;left=0;bottom=0;right=0;overflow=hidden;fontStyle=1;fontSize=14;" parent="l75y9oXwlMvh9T1f_pYU-62" vertex="1">
          <mxGeometry width="164" height="171" as="geometry" />
        </mxCell>
        <mxCell id="l75y9oXwlMvh9T1f_pYU-64" value="测量周期内，服务可用时间所占百分比，可用性分三个等级。&lt;br&gt;&lt;br&gt;1. 99.999%-99.9999%，这个是可用性最高的服务，一年累计不可用时间为5.256分钟~31.536秒，这类服务不可用会影响到用户使用，比如登录。&lt;br&gt;&lt;br&gt;2. 99.99%-99.999%，一年累计不可用时间为52.56分钟-5.256分钟，出现不可用时会影响用户的操作，间接面向用户的服务&lt;br&gt;&lt;br&gt;3. 99.9%-99.99%，一年累计不可用时间为8.76小时-52.56分钟，出现服务不可用时不会影响用户的使用。" style="shape=partialRectangle;connectable=0;fillColor=none;top=0;left=0;bottom=0;right=0;overflow=hidden;align=left;whiteSpace=wrap;html=1;spacingTop=2;spacingLeft=7;spacingRight=2;fontFamily=Verdana;" parent="l75y9oXwlMvh9T1f_pYU-62" vertex="1">
          <mxGeometry x="164" width="447" height="171" as="geometry" />
        </mxCell>
        <mxCell id="l75y9oXwlMvh9T1f_pYU-84" value="(服务在线时间/统计周期总时间)*100" style="shape=partialRectangle;html=1;whiteSpace=wrap;connectable=0;fillColor=none;top=0;left=0;bottom=0;right=0;overflow=hidden;align=left;spacingLeft=7;spacingRight=2;" parent="l75y9oXwlMvh9T1f_pYU-62" vertex="1">
          <mxGeometry x="611" width="131" height="171" as="geometry" />
        </mxCell>
        <mxCell id="l75y9oXwlMvh9T1f_pYU-89" value="Level 1" style="shape=partialRectangle;html=1;whiteSpace=wrap;connectable=0;fillColor=none;top=0;left=0;bottom=0;right=0;overflow=hidden;" parent="l75y9oXwlMvh9T1f_pYU-62" vertex="1">
          <mxGeometry x="742" width="80" height="171" as="geometry" />
        </mxCell>
        <mxCell id="l75y9oXwlMvh9T1f_pYU-94" value="是" style="shape=partialRectangle;html=1;whiteSpace=wrap;connectable=0;fillColor=none;top=0;left=0;bottom=0;right=0;overflow=hidden;" parent="l75y9oXwlMvh9T1f_pYU-62" vertex="1">
          <mxGeometry x="822" width="80" height="171" as="geometry" />
        </mxCell>
        <mxCell id="l75y9oXwlMvh9T1f_pYU-99" value="否" style="shape=partialRectangle;html=1;whiteSpace=wrap;connectable=0;fillColor=none;top=0;left=0;bottom=0;right=0;overflow=hidden;" parent="l75y9oXwlMvh9T1f_pYU-62" vertex="1">
          <mxGeometry x="902" width="82" height="171" as="geometry" />
        </mxCell>
        <mxCell id="l75y9oXwlMvh9T1f_pYU-66" value="" style="shape=partialRectangle;html=1;whiteSpace=wrap;collapsible=0;dropTarget=0;pointerEvents=0;fillColor=none;top=0;left=0;bottom=0;right=0;points=[[0,0.5],[1,0.5]];portConstraint=eastwest;" parent="l75y9oXwlMvh9T1f_pYU-57" vertex="1">
          <mxGeometry y="337" width="984" height="97" as="geometry" />
        </mxCell>
        <mxCell id="l75y9oXwlMvh9T1f_pYU-67" value="数据一致性" style="shape=partialRectangle;html=1;whiteSpace=wrap;connectable=0;fillColor=none;top=0;left=0;bottom=0;right=0;overflow=hidden;fontStyle=1;fontSize=14;" parent="l75y9oXwlMvh9T1f_pYU-66" vertex="1">
          <mxGeometry width="164" height="97" as="geometry" />
        </mxCell>
        <mxCell id="l75y9oXwlMvh9T1f_pYU-68" value="服务消费者调用服务接口写入数据后马上调用服务接口读取，是否可以读到写如的数据内容，包含三个等级&lt;br&gt;&lt;br&gt;1. 强一致&lt;br&gt;2. 弱一致&lt;br&gt;3. 最终一致" style="shape=partialRectangle;html=1;whiteSpace=wrap;connectable=0;fillColor=none;top=0;left=0;bottom=0;right=0;overflow=hidden;spacingLeft=7;align=left;fontFamily=Verdana;" parent="l75y9oXwlMvh9T1f_pYU-66" vertex="1">
          <mxGeometry x="164" width="447" height="97" as="geometry" />
        </mxCell>
        <mxCell id="l75y9oXwlMvh9T1f_pYU-85" value="调用资源创建接口，调用资源查询接口获取创建的数据" style="shape=partialRectangle;html=1;whiteSpace=wrap;connectable=0;fillColor=none;top=0;left=0;bottom=0;right=0;overflow=hidden;align=left;spacingLeft=7;spacingRight=2;" parent="l75y9oXwlMvh9T1f_pYU-66" vertex="1">
          <mxGeometry x="611" width="131" height="97" as="geometry" />
        </mxCell>
        <mxCell id="l75y9oXwlMvh9T1f_pYU-90" value="最终一致" style="shape=partialRectangle;html=1;whiteSpace=wrap;connectable=0;fillColor=none;top=0;left=0;bottom=0;right=0;overflow=hidden;" parent="l75y9oXwlMvh9T1f_pYU-66" vertex="1">
          <mxGeometry x="742" width="80" height="97" as="geometry" />
        </mxCell>
        <mxCell id="l75y9oXwlMvh9T1f_pYU-95" value="是" style="shape=partialRectangle;html=1;whiteSpace=wrap;connectable=0;fillColor=none;top=0;left=0;bottom=0;right=0;overflow=hidden;" parent="l75y9oXwlMvh9T1f_pYU-66" vertex="1">
          <mxGeometry x="822" width="80" height="97" as="geometry" />
        </mxCell>
        <mxCell id="l75y9oXwlMvh9T1f_pYU-100" value="否" style="shape=partialRectangle;html=1;whiteSpace=wrap;connectable=0;fillColor=none;top=0;left=0;bottom=0;right=0;overflow=hidden;" parent="l75y9oXwlMvh9T1f_pYU-66" vertex="1">
          <mxGeometry x="902" width="82" height="97" as="geometry" />
        </mxCell>
        <mxCell id="l75y9oXwlMvh9T1f_pYU-74" value="" style="shape=partialRectangle;html=1;whiteSpace=wrap;collapsible=0;dropTarget=0;pointerEvents=0;fillColor=none;top=0;left=0;bottom=0;right=0;points=[[0,0.5],[1,0.5]];portConstraint=eastwest;" parent="l75y9oXwlMvh9T1f_pYU-57" vertex="1">
          <mxGeometry y="434" width="984" height="79" as="geometry" />
        </mxCell>
        <mxCell id="l75y9oXwlMvh9T1f_pYU-75" value="吞吐量" style="shape=partialRectangle;html=1;whiteSpace=wrap;connectable=0;fillColor=none;top=0;left=0;bottom=0;right=0;overflow=hidden;fontStyle=1;fontSize=14;" parent="l75y9oXwlMvh9T1f_pYU-74" vertex="1">
          <mxGeometry width="164" height="79" as="geometry" />
        </mxCell>
        <mxCell id="l75y9oXwlMvh9T1f_pYU-76" value="每秒钟处理的请求数，对于服务集群建议给出总体吞吐量的计算方式，比如集群吞吐量=吞吐量*服务实例数，如果难以给出，则至少要给出典型的集群实例数情况下总体吞吐量" style="shape=partialRectangle;html=1;whiteSpace=wrap;connectable=0;fillColor=none;top=0;left=0;bottom=0;right=0;overflow=hidden;spacingLeft=7;align=left;fontFamily=Verdana;" parent="l75y9oXwlMvh9T1f_pYU-74" vertex="1">
          <mxGeometry x="164" width="447" height="79" as="geometry" />
        </mxCell>
        <mxCell id="l75y9oXwlMvh9T1f_pYU-86" value="统计服务每秒处理的请求数量" style="shape=partialRectangle;html=1;whiteSpace=wrap;connectable=0;fillColor=none;top=0;left=0;bottom=0;right=0;overflow=hidden;align=left;spacingLeft=7;spacingRight=2;" parent="l75y9oXwlMvh9T1f_pYU-74" vertex="1">
          <mxGeometry x="611" width="131" height="79" as="geometry" />
        </mxCell>
        <mxCell id="l75y9oXwlMvh9T1f_pYU-91" value="200" style="shape=partialRectangle;html=1;whiteSpace=wrap;connectable=0;fillColor=none;top=0;left=0;bottom=0;right=0;overflow=hidden;" parent="l75y9oXwlMvh9T1f_pYU-74" vertex="1">
          <mxGeometry x="742" width="80" height="79" as="geometry" />
        </mxCell>
        <mxCell id="l75y9oXwlMvh9T1f_pYU-96" value="是" style="shape=partialRectangle;html=1;whiteSpace=wrap;connectable=0;fillColor=none;top=0;left=0;bottom=0;right=0;overflow=hidden;" parent="l75y9oXwlMvh9T1f_pYU-74" vertex="1">
          <mxGeometry x="822" width="80" height="79" as="geometry" />
        </mxCell>
        <mxCell id="l75y9oXwlMvh9T1f_pYU-101" value="可选" style="shape=partialRectangle;html=1;whiteSpace=wrap;connectable=0;fillColor=none;top=0;left=0;bottom=0;right=0;overflow=hidden;" parent="l75y9oXwlMvh9T1f_pYU-74" vertex="1">
          <mxGeometry x="902" width="82" height="79" as="geometry" />
        </mxCell>
        <mxCell id="l75y9oXwlMvh9T1f_pYU-102" value="" style="shape=partialRectangle;html=1;whiteSpace=wrap;collapsible=0;dropTarget=0;pointerEvents=0;fillColor=none;top=0;left=0;bottom=0;right=0;points=[[0,0.5],[1,0.5]];portConstraint=eastwest;" parent="l75y9oXwlMvh9T1f_pYU-57" vertex="1">
          <mxGeometry y="513" width="984" height="36" as="geometry" />
        </mxCell>
        <mxCell id="l75y9oXwlMvh9T1f_pYU-103" value="TP50请求延迟" style="shape=partialRectangle;html=1;whiteSpace=wrap;connectable=0;fillColor=none;top=0;left=0;bottom=0;right=0;overflow=hidden;fontStyle=1;fontSize=14;" parent="l75y9oXwlMvh9T1f_pYU-102" vertex="1">
          <mxGeometry width="164" height="36" as="geometry" />
        </mxCell>
        <mxCell id="l75y9oXwlMvh9T1f_pYU-104" value="服务运行周期内50%的请求延时地域定义的值" style="shape=partialRectangle;html=1;whiteSpace=wrap;connectable=0;fillColor=none;top=0;left=0;bottom=0;right=0;overflow=hidden;align=left;spacingLeft=7;fontFamily=Verdana;" parent="l75y9oXwlMvh9T1f_pYU-102" vertex="1">
          <mxGeometry x="164" width="447" height="36" as="geometry" />
        </mxCell>
        <mxCell id="l75y9oXwlMvh9T1f_pYU-105" value="使用百分位计算方式" style="shape=partialRectangle;html=1;whiteSpace=wrap;connectable=0;fillColor=none;top=0;left=0;bottom=0;right=0;overflow=hidden;align=left;spacingLeft=7;spacingRight=7;" parent="l75y9oXwlMvh9T1f_pYU-102" vertex="1">
          <mxGeometry x="611" width="131" height="36" as="geometry" />
        </mxCell>
        <mxCell id="l75y9oXwlMvh9T1f_pYU-106" value="100ms" style="shape=partialRectangle;html=1;whiteSpace=wrap;connectable=0;fillColor=none;top=0;left=0;bottom=0;right=0;overflow=hidden;" parent="l75y9oXwlMvh9T1f_pYU-102" vertex="1">
          <mxGeometry x="742" width="80" height="36" as="geometry" />
        </mxCell>
        <mxCell id="l75y9oXwlMvh9T1f_pYU-107" value="是" style="shape=partialRectangle;html=1;whiteSpace=wrap;connectable=0;fillColor=none;top=0;left=0;bottom=0;right=0;overflow=hidden;" parent="l75y9oXwlMvh9T1f_pYU-102" vertex="1">
          <mxGeometry x="822" width="80" height="36" as="geometry" />
        </mxCell>
        <mxCell id="l75y9oXwlMvh9T1f_pYU-108" value="可选" style="shape=partialRectangle;html=1;whiteSpace=wrap;connectable=0;fillColor=none;top=0;left=0;bottom=0;right=0;overflow=hidden;" parent="l75y9oXwlMvh9T1f_pYU-102" vertex="1">
          <mxGeometry x="902" width="82" height="36" as="geometry" />
        </mxCell>
        <mxCell id="l75y9oXwlMvh9T1f_pYU-109" value="" style="shape=partialRectangle;html=1;whiteSpace=wrap;collapsible=0;dropTarget=0;pointerEvents=0;fillColor=none;top=0;left=0;bottom=0;right=0;points=[[0,0.5],[1,0.5]];portConstraint=eastwest;" parent="l75y9oXwlMvh9T1f_pYU-57" vertex="1">
          <mxGeometry y="549" width="984" height="34" as="geometry" />
        </mxCell>
        <mxCell id="l75y9oXwlMvh9T1f_pYU-110" value="TP99.9请求延迟" style="shape=partialRectangle;html=1;whiteSpace=wrap;connectable=0;fillColor=none;top=0;left=0;bottom=0;right=0;overflow=hidden;fontStyle=1;fontSize=14;" parent="l75y9oXwlMvh9T1f_pYU-109" vertex="1">
          <mxGeometry width="164" height="34" as="geometry" />
        </mxCell>
        <mxCell id="l75y9oXwlMvh9T1f_pYU-111" value="服务运行周期内99.9%的请求延迟地域定义的值" style="shape=partialRectangle;html=1;whiteSpace=wrap;connectable=0;fillColor=none;top=0;left=0;bottom=0;right=0;overflow=hidden;align=left;spacingLeft=7;fontFamily=Verdana;" parent="l75y9oXwlMvh9T1f_pYU-109" vertex="1">
          <mxGeometry x="164" width="447" height="34" as="geometry" />
        </mxCell>
        <mxCell id="l75y9oXwlMvh9T1f_pYU-112" value="使用百分位计算方式" style="shape=partialRectangle;html=1;whiteSpace=wrap;connectable=0;fillColor=none;top=0;left=0;bottom=0;right=0;overflow=hidden;align=left;spacingLeft=7;spacingRight=7;" parent="l75y9oXwlMvh9T1f_pYU-109" vertex="1">
          <mxGeometry x="611" width="131" height="34" as="geometry" />
        </mxCell>
        <mxCell id="l75y9oXwlMvh9T1f_pYU-113" value="200ms" style="shape=partialRectangle;html=1;whiteSpace=wrap;connectable=0;fillColor=none;top=0;left=0;bottom=0;right=0;overflow=hidden;" parent="l75y9oXwlMvh9T1f_pYU-109" vertex="1">
          <mxGeometry x="742" width="80" height="34" as="geometry" />
        </mxCell>
        <mxCell id="l75y9oXwlMvh9T1f_pYU-114" value="是" style="shape=partialRectangle;html=1;whiteSpace=wrap;connectable=0;fillColor=none;top=0;left=0;bottom=0;right=0;overflow=hidden;" parent="l75y9oXwlMvh9T1f_pYU-109" vertex="1">
          <mxGeometry x="822" width="80" height="34" as="geometry" />
        </mxCell>
        <mxCell id="l75y9oXwlMvh9T1f_pYU-115" value="可选" style="shape=partialRectangle;html=1;whiteSpace=wrap;connectable=0;fillColor=none;top=0;left=0;bottom=0;right=0;overflow=hidden;" parent="l75y9oXwlMvh9T1f_pYU-109" vertex="1">
          <mxGeometry x="902" width="82" height="34" as="geometry" />
        </mxCell>
        <mxCell id="l75y9oXwlMvh9T1f_pYU-118" value="Eden" style="rounded=0;whiteSpace=wrap;html=1;shadow=1;glass=1;sketch=1;fontFamily=Verdana;fontSize=17;strokeColor=#666666;align=center;fillColor=#f5f5f5;fontColor=#333333;" parent="1" vertex="1">
          <mxGeometry x="3448" y="1014.5" width="120" height="82.5" as="geometry" />
        </mxCell>
        <mxCell id="l75y9oXwlMvh9T1f_pYU-119" value="From&lt;br&gt;Sruvivor" style="rounded=0;whiteSpace=wrap;html=1;shadow=1;glass=1;sketch=1;fontFamily=Verdana;fontSize=17;strokeColor=#666666;align=center;fillColor=#f5f5f5;fontColor=#333333;" parent="1" vertex="1">
          <mxGeometry x="3568" y="1014.5" width="81" height="82.5" as="geometry" />
        </mxCell>
        <mxCell id="l75y9oXwlMvh9T1f_pYU-120" value="To&lt;br&gt;Sruvivor" style="rounded=0;whiteSpace=wrap;html=1;shadow=1;glass=1;sketch=1;fontFamily=Verdana;fontSize=17;strokeColor=#666666;align=center;fillColor=#f5f5f5;fontColor=#333333;spacingLeft=2;" parent="1" vertex="1">
          <mxGeometry x="3649" y="1014.5" width="78" height="82.5" as="geometry" />
        </mxCell>
        <mxCell id="l75y9oXwlMvh9T1f_pYU-121" value="Tenured" style="rounded=0;whiteSpace=wrap;html=1;shadow=1;glass=1;sketch=1;fontFamily=Verdana;fontSize=17;strokeColor=#82b366;align=center;fillColor=#d5e8d4;" parent="1" vertex="1">
          <mxGeometry x="3729" y="1014.5" width="140" height="82.5" as="geometry" />
        </mxCell>
        <mxCell id="l75y9oXwlMvh9T1f_pYU-122" value="Metaspace" style="rounded=0;whiteSpace=wrap;html=1;shadow=1;glass=1;sketch=1;fontFamily=Verdana;fontSize=17;strokeColor=#d79b00;align=center;fillColor=#ffe6cc;" parent="1" vertex="1">
          <mxGeometry x="3869" y="1014.5" width="111" height="82.5" as="geometry" />
        </mxCell>
        <mxCell id="l75y9oXwlMvh9T1f_pYU-123" value="" style="shape=curlyBracket;whiteSpace=wrap;html=1;rounded=1;flipH=1;shadow=1;glass=1;sketch=1;fontFamily=Verdana;fontSize=17;strokeColor=#000000;gradientColor=none;align=center;rotation=-90;" parent="1" vertex="1">
          <mxGeometry x="3639.05" y="836" width="27" height="328" as="geometry" />
        </mxCell>
        <mxCell id="l75y9oXwlMvh9T1f_pYU-124" value="堆&lt;br&gt;heap" style="text;html=1;strokeColor=none;fillColor=none;align=center;verticalAlign=middle;whiteSpace=wrap;rounded=0;shadow=1;glass=1;sketch=1;fontFamily=Verdana;fontSize=17;" parent="1" vertex="1">
          <mxGeometry x="3636" y="957" width="40" height="20" as="geometry" />
        </mxCell>
        <mxCell id="l75y9oXwlMvh9T1f_pYU-125" value="" style="shape=curlyBracket;whiteSpace=wrap;html=1;rounded=1;flipH=1;shadow=1;glass=1;sketch=1;fontFamily=Verdana;fontSize=17;strokeColor=#000000;fillColor=#CC6600;gradientColor=none;align=center;rotation=90;" parent="1" vertex="1">
          <mxGeometry x="3577.5" y="980.5" width="23" height="276" as="geometry" />
        </mxCell>
        <mxCell id="l75y9oXwlMvh9T1f_pYU-126" value="新生代&lt;br&gt;Young Generation" style="text;html=1;strokeColor=none;fillColor=none;align=center;verticalAlign=middle;whiteSpace=wrap;rounded=0;shadow=1;glass=1;sketch=1;fontFamily=Verdana;fontSize=17;" parent="1" vertex="1">
          <mxGeometry x="3494.5" y="1136" width="189" height="38" as="geometry" />
        </mxCell>
        <mxCell id="l75y9oXwlMvh9T1f_pYU-127" value="" style="shape=curlyBracket;whiteSpace=wrap;html=1;rounded=1;flipH=1;shadow=1;glass=1;sketch=1;fontFamily=Verdana;fontSize=17;strokeColor=#82b366;fillColor=#d5e8d4;align=center;rotation=90;" parent="1" vertex="1">
          <mxGeometry x="3791.25" y="1049.75" width="18.25" height="135.75" as="geometry" />
        </mxCell>
        <mxCell id="l75y9oXwlMvh9T1f_pYU-128" value="老年代&lt;br&gt;Old Generation" style="text;html=1;strokeColor=none;fillColor=none;align=center;verticalAlign=middle;whiteSpace=wrap;rounded=0;shadow=1;glass=1;sketch=1;fontFamily=Verdana;fontSize=17;" parent="1" vertex="1">
          <mxGeometry x="3710" y="1134" width="189" height="38" as="geometry" />
        </mxCell>
        <mxCell id="l75y9oXwlMvh9T1f_pYU-129" value="" style="shape=curlyBracket;whiteSpace=wrap;html=1;rounded=1;flipH=1;shadow=1;glass=1;sketch=1;fontFamily=Verdana;fontSize=17;strokeColor=#d79b00;fillColor=#ffe6cc;align=center;direction=north;" parent="1" vertex="1">
          <mxGeometry x="3878" y="1108.5" width="102" height="20" as="geometry" />
        </mxCell>
        <mxCell id="l75y9oXwlMvh9T1f_pYU-130" value="元空间&lt;br&gt;Metaspace" style="text;html=1;strokeColor=none;fillColor=none;align=center;verticalAlign=middle;whiteSpace=wrap;rounded=0;shadow=1;glass=1;sketch=1;fontFamily=Verdana;fontSize=17;" parent="1" vertex="1">
          <mxGeometry x="3840" y="1133" width="189" height="38" as="geometry" />
        </mxCell>
        <mxCell id="l75y9oXwlMvh9T1f_pYU-131" value="Mative Method Stacks&lt;br&gt;本地方法栈" style="rounded=0;whiteSpace=wrap;html=1;shadow=1;glass=1;sketch=1;fontFamily=Verdana;fontSize=17;align=center;fillColor=#dae8fc;strokeColor=#6c8ebf;" parent="1" vertex="1">
          <mxGeometry x="3394" y="1349" width="367" height="57" as="geometry" />
        </mxCell>
        <mxCell id="l75y9oXwlMvh9T1f_pYU-132" value="" style="rounded=0;whiteSpace=wrap;html=1;shadow=1;glass=1;sketch=1;fontFamily=Verdana;fontSize=17;align=center;fillColor=#dae8fc;strokeColor=#6c8ebf;" parent="1" vertex="1">
          <mxGeometry x="3394" y="1434" width="744" height="108" as="geometry" />
        </mxCell>
        <mxCell id="l75y9oXwlMvh9T1f_pYU-133" value="Program Counter Register&lt;br&gt;程序计数器" style="rounded=0;whiteSpace=wrap;html=1;shadow=1;glass=1;sketch=1;fontFamily=Verdana;fontSize=17;align=center;fillColor=#dae8fc;strokeColor=#6c8ebf;" parent="1" vertex="1">
          <mxGeometry x="3793" y="1349" width="345" height="57" as="geometry" />
        </mxCell>
        <mxCell id="l75y9oXwlMvh9T1f_pYU-134" value="JVM Stacks&lt;br style=&quot;font-size: 15px;&quot;&gt;虚拟机栈" style="text;html=1;strokeColor=none;fillColor=none;align=center;verticalAlign=middle;whiteSpace=wrap;rounded=0;shadow=1;glass=1;sketch=1;fontFamily=Verdana;fontSize=15;" parent="1" vertex="1">
          <mxGeometry x="3394" y="1471.5" width="97" height="33" as="geometry" />
        </mxCell>
        <mxCell id="l75y9oXwlMvh9T1f_pYU-136" value="" style="rounded=1;whiteSpace=wrap;html=1;shadow=1;glass=1;sketch=1;fontFamily=Verdana;fontSize=15;align=center;fillColor=#f5f5f5;strokeColor=#666666;fontColor=#333333;" parent="1" vertex="1">
          <mxGeometry x="3498" y="1448" width="260" height="81" as="geometry" />
        </mxCell>
        <mxCell id="l75y9oXwlMvh9T1f_pYU-137" value="" style="rounded=1;whiteSpace=wrap;html=1;shadow=1;glass=1;sketch=1;fontFamily=Verdana;fontSize=15;align=center;fillColor=#f5f5f5;strokeColor=#666666;fontColor=#333333;" parent="1" vertex="1">
          <mxGeometry x="3769" y="1447.5" width="260" height="81" as="geometry" />
        </mxCell>
        <mxCell id="l75y9oXwlMvh9T1f_pYU-138" value="&lt;font style=&quot;font-size: 11px&quot;&gt;局部变量表&lt;/font&gt;" style="rounded=0;whiteSpace=wrap;html=1;shadow=1;glass=1;sketch=1;fontFamily=Verdana;fontSize=10;align=center;spacingLeft=1;spacingRight=0;" parent="1" vertex="1">
          <mxGeometry x="3508" y="1483" width="64" height="32" as="geometry" />
        </mxCell>
        <mxCell id="l75y9oXwlMvh9T1f_pYU-139" value="&lt;font style=&quot;font-size: 11px&quot;&gt;操作数栈&lt;/font&gt;" style="rounded=0;whiteSpace=wrap;html=1;shadow=1;glass=1;sketch=1;fontFamily=Verdana;fontSize=10;align=center;spacingLeft=1;spacingRight=0;" parent="1" vertex="1">
          <mxGeometry x="3577.5" y="1483" width="64" height="32" as="geometry" />
        </mxCell>
        <mxCell id="l75y9oXwlMvh9T1f_pYU-140" value="&lt;font style=&quot;font-size: 11px&quot;&gt;动态链接&lt;/font&gt;" style="rounded=0;whiteSpace=wrap;html=1;shadow=1;glass=1;sketch=1;fontFamily=Verdana;fontSize=10;align=center;spacingLeft=1;spacingRight=0;" parent="1" vertex="1">
          <mxGeometry x="3646" y="1483" width="64" height="32" as="geometry" />
        </mxCell>
        <mxCell id="l75y9oXwlMvh9T1f_pYU-141" value="&lt;span style=&quot;font-size: 11px&quot;&gt;....&lt;/span&gt;" style="rounded=0;whiteSpace=wrap;html=1;shadow=1;glass=1;sketch=1;fontFamily=Verdana;fontSize=10;align=center;spacingLeft=1;spacingRight=0;" parent="1" vertex="1">
          <mxGeometry x="3719" y="1483" width="33" height="33" as="geometry" />
        </mxCell>
        <mxCell id="l75y9oXwlMvh9T1f_pYU-142" value="&lt;font style=&quot;font-size: 11px&quot;&gt;局部变量表&lt;/font&gt;" style="rounded=0;whiteSpace=wrap;html=1;shadow=1;glass=1;sketch=1;fontFamily=Verdana;fontSize=10;align=center;spacingLeft=1;spacingRight=0;" parent="1" vertex="1">
          <mxGeometry x="3777" y="1485" width="64" height="32" as="geometry" />
        </mxCell>
        <mxCell id="l75y9oXwlMvh9T1f_pYU-143" value="&lt;font style=&quot;font-size: 11px&quot;&gt;操作数栈&lt;/font&gt;" style="rounded=0;whiteSpace=wrap;html=1;shadow=1;glass=1;sketch=1;fontFamily=Verdana;fontSize=10;align=center;spacingLeft=1;spacingRight=0;" parent="1" vertex="1">
          <mxGeometry x="3846.5" y="1485" width="64" height="32" as="geometry" />
        </mxCell>
        <mxCell id="l75y9oXwlMvh9T1f_pYU-144" value="&lt;font style=&quot;font-size: 11px&quot;&gt;动态链接&lt;/font&gt;" style="rounded=0;whiteSpace=wrap;html=1;shadow=1;glass=1;sketch=1;fontFamily=Verdana;fontSize=10;align=center;spacingLeft=1;spacingRight=0;" parent="1" vertex="1">
          <mxGeometry x="3915" y="1485" width="64" height="32" as="geometry" />
        </mxCell>
        <mxCell id="l75y9oXwlMvh9T1f_pYU-145" value="&lt;span style=&quot;font-size: 11px&quot;&gt;....&lt;/span&gt;" style="rounded=0;whiteSpace=wrap;html=1;shadow=1;glass=1;sketch=1;fontFamily=Verdana;fontSize=10;align=center;spacingLeft=1;spacingRight=0;" parent="1" vertex="1">
          <mxGeometry x="3988" y="1485" width="33" height="33" as="geometry" />
        </mxCell>
        <mxCell id="l75y9oXwlMvh9T1f_pYU-146" value="&lt;font style=&quot;font-size: 14px&quot;&gt;栈帧-1（Method A）&lt;/font&gt;" style="text;html=1;strokeColor=none;fillColor=none;align=center;verticalAlign=middle;whiteSpace=wrap;rounded=0;shadow=1;glass=1;sketch=1;fontFamily=Verdana;fontSize=11;" parent="1" vertex="1">
          <mxGeometry x="3539" y="1454.5" width="169" height="17" as="geometry" />
        </mxCell>
        <mxCell id="l75y9oXwlMvh9T1f_pYU-147" value="&lt;font style=&quot;font-size: 14px&quot;&gt;栈帧-1（Method B）&lt;/font&gt;" style="text;html=1;strokeColor=none;fillColor=none;align=center;verticalAlign=middle;whiteSpace=wrap;rounded=0;shadow=1;glass=1;sketch=1;fontFamily=Verdana;fontSize=11;" parent="1" vertex="1">
          <mxGeometry x="3810" y="1454.5" width="169" height="17" as="geometry" />
        </mxCell>
        <mxCell id="l75y9oXwlMvh9T1f_pYU-148" value="..." style="rounded=1;whiteSpace=wrap;html=1;shadow=1;glass=1;sketch=1;fontFamily=Verdana;fontSize=15;align=center;fillColor=#f5f5f5;strokeColor=#666666;fontColor=#333333;" parent="1" vertex="1">
          <mxGeometry x="4043" y="1448" width="86" height="81" as="geometry" />
        </mxCell>
        <mxCell id="l75y9oXwlMvh9T1f_pYU-149" value="" style="rounded=0;whiteSpace=wrap;html=1;shadow=1;glass=1;sketch=1;fontFamily=Verdana;fontSize=17;align=center;fillColor=#d5e8d4;strokeColor=#82b366;" parent="1" vertex="1">
          <mxGeometry x="3394" y="1563" width="475" height="154" as="geometry" />
        </mxCell>
        <mxCell id="l75y9oXwlMvh9T1f_pYU-150" value="Heap（堆）" style="text;html=1;strokeColor=none;fillColor=none;align=center;verticalAlign=middle;whiteSpace=wrap;rounded=0;shadow=1;glass=1;sketch=1;fontFamily=Verdana;fontSize=15;" parent="1" vertex="1">
          <mxGeometry x="3529" y="1570" width="142" height="31" as="geometry" />
        </mxCell>
        <mxCell id="l75y9oXwlMvh9T1f_pYU-151" value="" style="rounded=0;whiteSpace=wrap;html=1;shadow=1;glass=1;sketch=1;fontFamily=Verdana;fontSize=11;align=center;" parent="1" vertex="1">
          <mxGeometry x="3405" y="1611" width="289" height="95" as="geometry" />
        </mxCell>
        <mxCell id="l75y9oXwlMvh9T1f_pYU-152" value="&lt;font style=&quot;font-size: 14px&quot;&gt;老年代&lt;br&gt;Old Generation&lt;/font&gt;" style="rounded=0;whiteSpace=wrap;html=1;shadow=1;glass=1;sketch=1;fontFamily=Verdana;fontSize=11;align=center;" parent="1" vertex="1">
          <mxGeometry x="3706" y="1612" width="151" height="94" as="geometry" />
        </mxCell>
        <mxCell id="l75y9oXwlMvh9T1f_pYU-153" value="Young Generation（新生代）" style="text;html=1;strokeColor=none;fillColor=none;align=center;verticalAlign=middle;whiteSpace=wrap;rounded=0;shadow=1;glass=1;sketch=1;fontFamily=Verdana;fontSize=15;" parent="1" vertex="1">
          <mxGeometry x="3441" y="1671" width="212" height="26" as="geometry" />
        </mxCell>
        <mxCell id="l75y9oXwlMvh9T1f_pYU-155" value="Eden" style="rounded=0;whiteSpace=wrap;html=1;shadow=1;glass=1;sketch=1;fontFamily=Verdana;fontSize=11;strokeColor=#d79b00;fillColor=#ffe6cc;align=center;" parent="1" vertex="1">
          <mxGeometry x="3420" y="1619.5" width="57" height="39.5" as="geometry" />
        </mxCell>
        <mxCell id="l75y9oXwlMvh9T1f_pYU-156" value="From Sruvivor" style="rounded=0;whiteSpace=wrap;html=1;shadow=1;glass=1;sketch=1;fontFamily=Verdana;fontSize=11;strokeColor=#d79b00;fillColor=#ffe6cc;align=center;" parent="1" vertex="1">
          <mxGeometry x="3491" y="1619.38" width="101" height="39.62" as="geometry" />
        </mxCell>
        <mxCell id="l75y9oXwlMvh9T1f_pYU-157" value="To Sruvivor" style="rounded=0;whiteSpace=wrap;html=1;shadow=1;glass=1;sketch=1;fontFamily=Verdana;fontSize=11;strokeColor=#d79b00;fillColor=#ffe6cc;align=center;" parent="1" vertex="1">
          <mxGeometry x="3602.45" y="1621" width="81.05" height="38" as="geometry" />
        </mxCell>
        <mxCell id="l75y9oXwlMvh9T1f_pYU-158" value="" style="rounded=0;whiteSpace=wrap;html=1;shadow=1;glass=1;sketch=1;fontFamily=Verdana;fontSize=17;align=center;fillColor=#d5e8d4;strokeColor=#82b366;" parent="1" vertex="1">
          <mxGeometry x="3881" y="1562.25" width="256" height="153.75" as="geometry" />
        </mxCell>
        <mxCell id="l75y9oXwlMvh9T1f_pYU-159" value="Metaspace(元数据区）&lt;br&gt;-方法区的实现" style="text;html=1;strokeColor=none;fillColor=none;align=center;verticalAlign=middle;whiteSpace=wrap;rounded=0;shadow=1;glass=1;sketch=1;fontFamily=Verdana;fontSize=15;" parent="1" vertex="1">
          <mxGeometry x="3921" y="1568" width="175" height="35" as="geometry" />
        </mxCell>
        <mxCell id="l75y9oXwlMvh9T1f_pYU-160" value="运行时常量池" style="rounded=0;whiteSpace=wrap;html=1;shadow=1;glass=1;sketch=1;fontFamily=Verdana;fontSize=11;align=center;" parent="1" vertex="1">
          <mxGeometry x="3903" y="1615" width="120" height="41" as="geometry" />
        </mxCell>
        <mxCell id="l75y9oXwlMvh9T1f_pYU-161" value="方法元信息" style="rounded=0;whiteSpace=wrap;html=1;shadow=1;glass=1;sketch=1;fontFamily=Verdana;fontSize=11;align=center;" parent="1" vertex="1">
          <mxGeometry x="3903" y="1667" width="120" height="41" as="geometry" />
        </mxCell>
        <mxCell id="l75y9oXwlMvh9T1f_pYU-162" value="Klass &lt;br&gt;类元信息" style="rounded=0;whiteSpace=wrap;html=1;shadow=1;glass=1;sketch=1;fontFamily=Verdana;fontSize=11;align=center;" parent="1" vertex="1">
          <mxGeometry x="4033" y="1617" width="81" height="89" as="geometry" />
        </mxCell>
        <mxCell id="l75y9oXwlMvh9T1f_pYU-165" value="" style="edgeStyle=orthogonalEdgeStyle;rounded=0;sketch=1;orthogonalLoop=1;jettySize=auto;html=1;shadow=1;fontFamily=Verdana;fontSize=11;" parent="1" source="l75y9oXwlMvh9T1f_pYU-163" target="l75y9oXwlMvh9T1f_pYU-164" edge="1">
          <mxGeometry relative="1" as="geometry" />
        </mxCell>
        <mxCell id="l75y9oXwlMvh9T1f_pYU-163" value="&lt;font style=&quot;font-size: 14px&quot;&gt;新对象&lt;/font&gt;" style="rounded=0;whiteSpace=wrap;html=1;shadow=1;glass=1;sketch=1;fontFamily=Verdana;fontSize=11;align=center;fillColor=#d5e8d4;strokeColor=#82b366;" parent="1" vertex="1">
          <mxGeometry x="4269.25" y="1234" width="101" height="38" as="geometry" />
        </mxCell>
        <mxCell id="l75y9oXwlMvh9T1f_pYU-167" value="" style="rounded=0;sketch=1;orthogonalLoop=1;jettySize=auto;html=1;shadow=1;fontFamily=Verdana;fontSize=11;" parent="1" source="l75y9oXwlMvh9T1f_pYU-164" target="l75y9oXwlMvh9T1f_pYU-166" edge="1">
          <mxGeometry relative="1" as="geometry" />
        </mxCell>
        <mxCell id="l75y9oXwlMvh9T1f_pYU-168" value="否" style="edgeLabel;html=1;align=center;verticalAlign=middle;resizable=0;points=[];fontSize=11;fontFamily=Verdana;" parent="l75y9oXwlMvh9T1f_pYU-167" vertex="1" connectable="0">
          <mxGeometry x="-0.5167" y="-1" relative="1" as="geometry">
            <mxPoint x="14" y="-1" as="offset" />
          </mxGeometry>
        </mxCell>
        <mxCell id="l75y9oXwlMvh9T1f_pYU-170" value="" style="edgeStyle=none;rounded=0;sketch=1;orthogonalLoop=1;jettySize=auto;html=1;shadow=1;fontFamily=Verdana;fontSize=11;" parent="1" source="l75y9oXwlMvh9T1f_pYU-164" target="l75y9oXwlMvh9T1f_pYU-169" edge="1">
          <mxGeometry relative="1" as="geometry" />
        </mxCell>
        <mxCell id="l75y9oXwlMvh9T1f_pYU-164" value="Eden能&lt;br&gt;否存放？" style="rhombus;whiteSpace=wrap;html=1;rounded=0;shadow=1;fontFamily=Verdana;fontSize=11;glass=1;sketch=1;fillColor=#fff2cc;strokeColor=#d6b656;" parent="1" vertex="1">
          <mxGeometry x="4279.75" y="1314" width="80" height="80" as="geometry" />
        </mxCell>
        <mxCell id="l75y9oXwlMvh9T1f_pYU-172" value="" style="edgeStyle=none;rounded=0;sketch=1;orthogonalLoop=1;jettySize=auto;html=1;shadow=1;fontFamily=Verdana;fontSize=13;" parent="1" source="l75y9oXwlMvh9T1f_pYU-166" target="l75y9oXwlMvh9T1f_pYU-171" edge="1">
          <mxGeometry relative="1" as="geometry" />
        </mxCell>
        <mxCell id="l75y9oXwlMvh9T1f_pYU-166" value="执行YGC&lt;br style=&quot;font-size: 13px;&quot;&gt;Minor GC" style="whiteSpace=wrap;html=1;rounded=0;shadow=1;fontFamily=Verdana;fontSize=13;glass=1;sketch=1;fillColor=#d5e8d4;strokeColor=#82b366;" parent="1" vertex="1">
          <mxGeometry x="4419.75" y="1333" width="120.5" height="42" as="geometry" />
        </mxCell>
        <mxCell id="l75y9oXwlMvh9T1f_pYU-169" value="分配对象内存" style="whiteSpace=wrap;html=1;rounded=0;shadow=1;fontFamily=Verdana;fontSize=13;glass=1;sketch=1;fillColor=#d5e8d4;strokeColor=#82b366;" parent="1" vertex="1">
          <mxGeometry x="4260" y="1433.5" width="119.5" height="41" as="geometry" />
        </mxCell>
        <mxCell id="l75y9oXwlMvh9T1f_pYU-176" value="" style="edgeStyle=none;rounded=0;sketch=1;orthogonalLoop=1;jettySize=auto;html=1;shadow=1;fontFamily=Verdana;fontSize=13;" parent="1" source="l75y9oXwlMvh9T1f_pYU-171" target="l75y9oXwlMvh9T1f_pYU-175" edge="1">
          <mxGeometry relative="1" as="geometry" />
        </mxCell>
        <mxCell id="l75y9oXwlMvh9T1f_pYU-177" value="否" style="edgeLabel;html=1;align=center;verticalAlign=middle;resizable=0;points=[];fontSize=13;fontFamily=Verdana;" parent="l75y9oXwlMvh9T1f_pYU-176" vertex="1" connectable="0">
          <mxGeometry x="-0.325" y="2" relative="1" as="geometry">
            <mxPoint x="-2" y="7" as="offset" />
          </mxGeometry>
        </mxCell>
        <mxCell id="l75y9oXwlMvh9T1f_pYU-171" value="Eden能否&lt;br&gt;存放？" style="rhombus;whiteSpace=wrap;html=1;rounded=0;shadow=1;fontFamily=Verdana;fontSize=13;glass=1;sketch=1;fillColor=#fff2cc;strokeColor=#d6b656;" parent="1" vertex="1">
          <mxGeometry x="4442.25" y="1414" width="80" height="80" as="geometry" />
        </mxCell>
        <mxCell id="l75y9oXwlMvh9T1f_pYU-173" value="" style="endArrow=classic;html=1;shadow=1;fontFamily=Verdana;fontSize=13;exitX=0;exitY=0.5;exitDx=0;exitDy=0;entryX=1;entryY=0.5;entryDx=0;entryDy=0;sketch=1;" parent="1" source="l75y9oXwlMvh9T1f_pYU-171" target="l75y9oXwlMvh9T1f_pYU-169" edge="1">
          <mxGeometry width="50" height="50" relative="1" as="geometry">
            <mxPoint x="4411.25" y="1561" as="sourcePoint" />
            <mxPoint x="4461.25" y="1511" as="targetPoint" />
          </mxGeometry>
        </mxCell>
        <mxCell id="l75y9oXwlMvh9T1f_pYU-174" value="是" style="edgeLabel;html=1;align=center;verticalAlign=middle;resizable=0;points=[];fontSize=13;fontFamily=Verdana;" parent="l75y9oXwlMvh9T1f_pYU-173" vertex="1" connectable="0">
          <mxGeometry x="-0.4582" y="3" relative="1" as="geometry">
            <mxPoint x="-12" y="-3" as="offset" />
          </mxGeometry>
        </mxCell>
        <mxCell id="l75y9oXwlMvh9T1f_pYU-180" value="" style="edgeStyle=none;rounded=0;sketch=1;orthogonalLoop=1;jettySize=auto;html=1;shadow=1;fontFamily=Verdana;fontSize=13;" parent="1" source="l75y9oXwlMvh9T1f_pYU-175" target="l75y9oXwlMvh9T1f_pYU-179" edge="1">
          <mxGeometry relative="1" as="geometry" />
        </mxCell>
        <mxCell id="l75y9oXwlMvh9T1f_pYU-181" value="否" style="edgeLabel;html=1;align=center;verticalAlign=middle;resizable=0;points=[];fontSize=13;fontFamily=Verdana;" parent="l75y9oXwlMvh9T1f_pYU-180" vertex="1" connectable="0">
          <mxGeometry x="-0.3444" y="2" relative="1" as="geometry">
            <mxPoint x="-3" y="7" as="offset" />
          </mxGeometry>
        </mxCell>
        <mxCell id="l75y9oXwlMvh9T1f_pYU-175" value="Old区能否&lt;br&gt;存放？" style="rhombus;whiteSpace=wrap;html=1;rounded=0;shadow=1;fontFamily=Verdana;fontSize=13;glass=1;sketch=1;fillColor=#fff2cc;strokeColor=#d6b656;" parent="1" vertex="1">
          <mxGeometry x="4445.25" y="1533.5" width="80" height="80" as="geometry" />
        </mxCell>
        <mxCell id="l75y9oXwlMvh9T1f_pYU-178" value="有可能是一个大对象" style="text;html=1;strokeColor=none;fillColor=none;align=center;verticalAlign=middle;whiteSpace=wrap;rounded=0;shadow=1;glass=1;sketch=1;fontFamily=Verdana;fontSize=13;" parent="1" vertex="1">
          <mxGeometry x="4354.25" y="1490" width="127" height="20" as="geometry" />
        </mxCell>
        <mxCell id="l75y9oXwlMvh9T1f_pYU-179" value="Full GC&lt;br&gt;(Major GC)" style="whiteSpace=wrap;html=1;rounded=0;shadow=1;fontFamily=Verdana;fontSize=13;glass=1;sketch=1;fillColor=#d5e8d4;strokeColor=#82b366;" parent="1" vertex="1">
          <mxGeometry x="4427.25" y="1664" width="121" height="42" as="geometry" />
        </mxCell>
        <mxCell id="l75y9oXwlMvh9T1f_pYU-182" value="" style="endArrow=classic;html=1;shadow=1;fontFamily=Verdana;fontSize=13;exitX=1;exitY=0.5;exitDx=0;exitDy=0;entryX=1;entryY=0.5;entryDx=0;entryDy=0;edgeStyle=orthogonalEdgeStyle;" parent="1" source="l75y9oXwlMvh9T1f_pYU-179" target="l75y9oXwlMvh9T1f_pYU-175" edge="1">
          <mxGeometry width="50" height="50" relative="1" as="geometry">
            <mxPoint x="4616.25" y="1710" as="sourcePoint" />
            <mxPoint x="4666.25" y="1660" as="targetPoint" />
            <Array as="points">
              <mxPoint x="4573.25" y="1685" />
              <mxPoint x="4573.25" y="1574" />
            </Array>
          </mxGeometry>
        </mxCell>
        <mxCell id="l75y9oXwlMvh9T1f_pYU-183" value="OOM" style="whiteSpace=wrap;html=1;rounded=0;shadow=1;fontFamily=Verdana;fontSize=13;glass=1;sketch=1;fillColor=#f8cecc;strokeColor=#b85450;" parent="1" vertex="1">
          <mxGeometry x="4427.25" y="1757" width="121" height="42" as="geometry" />
        </mxCell>
        <mxCell id="l75y9oXwlMvh9T1f_pYU-184" value="" style="endArrow=classic;html=1;shadow=1;fontFamily=Verdana;fontSize=13;exitX=0.5;exitY=1;exitDx=0;exitDy=0;entryX=0.5;entryY=0;entryDx=0;entryDy=0;sketch=1;" parent="1" source="l75y9oXwlMvh9T1f_pYU-179" target="l75y9oXwlMvh9T1f_pYU-183" edge="1">
          <mxGeometry width="50" height="50" relative="1" as="geometry">
            <mxPoint x="4620.25" y="1771" as="sourcePoint" />
            <mxPoint x="4670.25" y="1721" as="targetPoint" />
          </mxGeometry>
        </mxCell>
        <mxCell id="l75y9oXwlMvh9T1f_pYU-185" value="Full GC后仍然无法存放" style="text;html=1;strokeColor=none;fillColor=none;align=center;verticalAlign=middle;whiteSpace=wrap;rounded=0;shadow=1;glass=1;sketch=1;fontFamily=Verdana;fontSize=13;" parent="1" vertex="1">
          <mxGeometry x="4497.25" y="1721" width="142" height="23" as="geometry" />
        </mxCell>
        <mxCell id="l75y9oXwlMvh9T1f_pYU-186" value="" style="endArrow=classic;html=1;shadow=1;fontFamily=Verdana;fontSize=13;exitX=0;exitY=0.5;exitDx=0;exitDy=0;entryX=0.5;entryY=1;entryDx=0;entryDy=0;edgeStyle=orthogonalEdgeStyle;" parent="1" source="l75y9oXwlMvh9T1f_pYU-175" target="l75y9oXwlMvh9T1f_pYU-169" edge="1">
          <mxGeometry width="50" height="50" relative="1" as="geometry">
            <mxPoint x="4338.25" y="1606" as="sourcePoint" />
            <mxPoint x="4388.25" y="1556" as="targetPoint" />
          </mxGeometry>
        </mxCell>
        <mxCell id="l75y9oXwlMvh9T1f_pYU-189" value="" style="edgeStyle=orthogonalEdgeStyle;rounded=0;sketch=1;orthogonalLoop=1;jettySize=auto;html=1;shadow=1;fontFamily=Verdana;fontSize=13;" parent="1" source="l75y9oXwlMvh9T1f_pYU-187" target="l75y9oXwlMvh9T1f_pYU-188" edge="1">
          <mxGeometry relative="1" as="geometry" />
        </mxCell>
        <mxCell id="l75y9oXwlMvh9T1f_pYU-187" value="旧对象" style="rounded=0;whiteSpace=wrap;html=1;shadow=1;glass=1;sketch=1;fontFamily=Verdana;fontSize=13;align=center;fillColor=#dae8fc;strokeColor=#6c8ebf;" parent="1" vertex="1">
          <mxGeometry x="4704" y="1274" width="117" height="36" as="geometry" />
        </mxCell>
        <mxCell id="l75y9oXwlMvh9T1f_pYU-188" value="Survivor&lt;br&gt;能否存放" style="rhombus;whiteSpace=wrap;html=1;rounded=0;shadow=1;fontFamily=Verdana;fontSize=13;glass=1;sketch=1;fillColor=#fff2cc;strokeColor=#d6b656;" parent="1" vertex="1">
          <mxGeometry x="4722.5" y="1346" width="80" height="80" as="geometry" />
        </mxCell>
        <mxCell id="l75y9oXwlMvh9T1f_pYU-195" value="" style="edgeStyle=none;rounded=0;sketch=1;orthogonalLoop=1;jettySize=auto;html=1;shadow=1;fontFamily=Verdana;fontSize=13;" parent="1" source="l75y9oXwlMvh9T1f_pYU-191" target="l75y9oXwlMvh9T1f_pYU-194" edge="1">
          <mxGeometry relative="1" as="geometry" />
        </mxCell>
        <mxCell id="l75y9oXwlMvh9T1f_pYU-191" value="放置到S0/S1" style="rounded=0;whiteSpace=wrap;html=1;shadow=1;glass=1;sketch=1;fontFamily=Verdana;fontSize=13;strokeColor=#6c8ebf;fillColor=#dae8fc;align=center;" parent="1" vertex="1">
          <mxGeometry x="4702" y="1465.5" width="119" height="40" as="geometry" />
        </mxCell>
        <mxCell id="l75y9oXwlMvh9T1f_pYU-192" value="" style="endArrow=classic;html=1;shadow=1;fontFamily=Verdana;fontSize=13;exitX=0.5;exitY=1;exitDx=0;exitDy=0;entryX=0.5;entryY=0;entryDx=0;entryDy=0;sketch=1;" parent="1" source="l75y9oXwlMvh9T1f_pYU-188" target="l75y9oXwlMvh9T1f_pYU-191" edge="1">
          <mxGeometry width="50" height="50" relative="1" as="geometry">
            <mxPoint x="4881" y="1489" as="sourcePoint" />
            <mxPoint x="4931" y="1439" as="targetPoint" />
          </mxGeometry>
        </mxCell>
        <mxCell id="l75y9oXwlMvh9T1f_pYU-193" value="是" style="edgeLabel;html=1;align=center;verticalAlign=middle;resizable=0;points=[];fontSize=13;fontFamily=Verdana;" parent="l75y9oXwlMvh9T1f_pYU-192" vertex="1" connectable="0">
          <mxGeometry x="-0.4752" y="3" relative="1" as="geometry">
            <mxPoint x="-4" y="10" as="offset" />
          </mxGeometry>
        </mxCell>
        <mxCell id="l75y9oXwlMvh9T1f_pYU-194" value="对象存活时间？" style="rhombus;whiteSpace=wrap;html=1;rounded=0;shadow=1;fontFamily=Verdana;fontSize=13;strokeColor=#d6b656;fillColor=#fff2cc;glass=1;sketch=1;" parent="1" vertex="1">
          <mxGeometry x="4722.5" y="1541" width="80" height="80" as="geometry" />
        </mxCell>
        <mxCell id="l75y9oXwlMvh9T1f_pYU-196" value="晋升到老年代" style="rounded=0;whiteSpace=wrap;html=1;shadow=1;glass=1;sketch=1;fontFamily=Verdana;fontSize=13;strokeColor=#6c8ebf;fillColor=#dae8fc;align=center;" parent="1" vertex="1">
          <mxGeometry x="4704" y="1671" width="119" height="40" as="geometry" />
        </mxCell>
        <mxCell id="l75y9oXwlMvh9T1f_pYU-197" value="" style="endArrow=classic;html=1;shadow=1;fontFamily=Verdana;fontSize=13;entryX=1;entryY=0.5;entryDx=0;entryDy=0;edgeStyle=orthogonalEdgeStyle;" parent="1" target="l75y9oXwlMvh9T1f_pYU-191" edge="1">
          <mxGeometry width="50" height="50" relative="1" as="geometry">
            <mxPoint x="4802.5" y="1584.5" as="sourcePoint" />
            <mxPoint x="4852.5" y="1534.5" as="targetPoint" />
            <Array as="points">
              <mxPoint x="4855" y="1585" />
              <mxPoint x="4855" y="1486" />
            </Array>
          </mxGeometry>
        </mxCell>
        <mxCell id="l75y9oXwlMvh9T1f_pYU-199" value="对象年龄未超过阈值" style="edgeLabel;html=1;align=center;verticalAlign=middle;resizable=0;points=[];fontSize=13;fontFamily=Verdana;" parent="l75y9oXwlMvh9T1f_pYU-197" vertex="1" connectable="0">
          <mxGeometry x="-0.1914" y="1" relative="1" as="geometry">
            <mxPoint x="2" y="-14" as="offset" />
          </mxGeometry>
        </mxCell>
        <mxCell id="l75y9oXwlMvh9T1f_pYU-198" value="" style="endArrow=classic;html=1;shadow=1;fontFamily=Verdana;fontSize=13;exitX=0.5;exitY=1;exitDx=0;exitDy=0;entryX=0.5;entryY=0;entryDx=0;entryDy=0;" parent="1" source="l75y9oXwlMvh9T1f_pYU-194" target="l75y9oXwlMvh9T1f_pYU-196" edge="1">
          <mxGeometry width="50" height="50" relative="1" as="geometry">
            <mxPoint x="4896" y="1787" as="sourcePoint" />
            <mxPoint x="4946" y="1737" as="targetPoint" />
          </mxGeometry>
        </mxCell>
        <mxCell id="l75y9oXwlMvh9T1f_pYU-200" value="超过阈值" style="edgeLabel;html=1;align=center;verticalAlign=middle;resizable=0;points=[];fontSize=13;fontFamily=Verdana;" parent="l75y9oXwlMvh9T1f_pYU-198" vertex="1" connectable="0">
          <mxGeometry x="-0.4398" relative="1" as="geometry">
            <mxPoint y="11" as="offset" />
          </mxGeometry>
        </mxCell>
        <mxCell id="l75y9oXwlMvh9T1f_pYU-201" value="" style="endArrow=classic;html=1;shadow=1;fontFamily=Verdana;fontSize=13;exitX=1;exitY=0.5;exitDx=0;exitDy=0;entryX=1;entryY=0.5;entryDx=0;entryDy=0;edgeStyle=orthogonalEdgeStyle;sketch=1;" parent="1" source="l75y9oXwlMvh9T1f_pYU-188" target="l75y9oXwlMvh9T1f_pYU-196" edge="1">
          <mxGeometry width="50" height="50" relative="1" as="geometry">
            <mxPoint x="4884" y="1434" as="sourcePoint" />
            <mxPoint x="4934" y="1384" as="targetPoint" />
            <Array as="points">
              <mxPoint x="4941" y="1386" />
              <mxPoint x="4941" y="1691" />
            </Array>
          </mxGeometry>
        </mxCell>
        <mxCell id="l75y9oXwlMvh9T1f_pYU-202" value="放不下" style="edgeLabel;html=1;align=center;verticalAlign=middle;resizable=0;points=[];fontSize=13;fontFamily=Verdana;" parent="l75y9oXwlMvh9T1f_pYU-201" vertex="1" connectable="0">
          <mxGeometry x="-0.0935" y="-1" relative="1" as="geometry">
            <mxPoint y="1" as="offset" />
          </mxGeometry>
        </mxCell>
        <mxCell id="l75y9oXwlMvh9T1f_pYU-203" value="" style="endArrow=classic;html=1;shadow=1;fontFamily=Verdana;fontSize=13;exitX=1;exitY=0.5;exitDx=0;exitDy=0;sketch=1;entryX=0.003;entryY=0.2;entryDx=0;entryDy=0;entryPerimeter=0;" parent="1" target="l75y9oXwlMvh9T1f_pYU-205" edge="1">
          <mxGeometry width="50" height="50" relative="1" as="geometry">
            <mxPoint x="4543.25" y="1354" as="sourcePoint" />
            <mxPoint x="4652" y="1354" as="targetPoint" />
          </mxGeometry>
        </mxCell>
        <mxCell id="l75y9oXwlMvh9T1f_pYU-206" value="没有被引用的对象直接回收，依然存活的对象放入Survivor区" style="text;html=1;strokeColor=none;fillColor=none;align=center;verticalAlign=middle;whiteSpace=wrap;rounded=0;shadow=0;glass=1;dashed=1;sketch=1;fontFamily=Verdana;fontSize=13;" parent="1" vertex="1">
          <mxGeometry x="4791" y="1314" width="187" height="44" as="geometry" />
        </mxCell>
        <mxCell id="l75y9oXwlMvh9T1f_pYU-207" value="" style="outlineConnect=0;dashed=0;verticalLabelPosition=bottom;verticalAlign=top;align=center;html=1;shape=mxgraph.aws3.application_discovery_service;rounded=0;shadow=0;glass=1;sketch=1;fontFamily=Verdana;fontSize=13;fillColor=#dae8fc;strokeColor=#6c8ebf;" parent="1" vertex="1">
          <mxGeometry x="4725" y="240" width="76.5" height="93" as="geometry" />
        </mxCell>
        <mxCell id="l75y9oXwlMvh9T1f_pYU-208" value="" style="pointerEvents=1;shadow=0;dashed=0;html=1;labelPosition=center;verticalLabelPosition=bottom;verticalAlign=top;align=center;shape=mxgraph.mscae.oms.config_assessment;rounded=0;glass=1;sketch=1;fontFamily=Verdana;fontSize=13;fillColor=#dae8fc;strokeColor=#6c8ebf;" parent="1" vertex="1">
          <mxGeometry x="4727" y="390" width="76.5" height="93" as="geometry" />
        </mxCell>
        <mxCell id="l75y9oXwlMvh9T1f_pYU-234" value="" style="outlineConnect=0;dashed=0;verticalLabelPosition=bottom;verticalAlign=top;align=center;html=1;shape=mxgraph.aws3.elastic_load_balancing;fillColor=#dae8fc;rounded=0;shadow=0;glass=1;sketch=1;fontFamily=Verdana;fontSize=13;strokeColor=#6c8ebf;" parent="1" vertex="1">
          <mxGeometry x="4888" y="240" width="76.5" height="93" as="geometry" />
        </mxCell>
        <mxCell id="l75y9oXwlMvh9T1f_pYU-237" value="" style="pointerEvents=1;shadow=0;dashed=0;html=1;strokeColor=#6c8ebf;labelPosition=center;verticalLabelPosition=bottom;verticalAlign=top;align=center;fillColor=#dae8fc;shape=mxgraph.mscae.enterprise.monitor_running_apps;rounded=0;glass=1;sketch=1;fontFamily=Verdana;fontSize=13;" parent="1" vertex="1">
          <mxGeometry x="5056" y="390" width="90" height="86.5" as="geometry" />
        </mxCell>
        <mxCell id="l75y9oXwlMvh9T1f_pYU-238" value="" style="outlineConnect=0;dashed=0;verticalLabelPosition=bottom;verticalAlign=top;align=center;html=1;shape=mxgraph.aws3.api_gateway;fillColor=#dae8fc;rounded=0;shadow=0;glass=1;sketch=1;fontFamily=Verdana;fontSize=13;strokeColor=#6c8ebf;" parent="1" vertex="1">
          <mxGeometry x="5062.75" y="236" width="76.5" height="93" as="geometry" />
        </mxCell>
        <mxCell id="l75y9oXwlMvh9T1f_pYU-239" value="Circuit-Board" style="strokeColor=#6c8ebf;shadow=1;strokeWidth=1;rounded=1;absoluteArcSize=1;arcSize=2;labelPosition=center;verticalLabelPosition=middle;align=center;verticalAlign=bottom;spacingLeft=0;fontSize=12;whiteSpace=wrap;spacingBottom=2;glass=1;dashed=1;sketch=1;fontFamily=Verdana;fillColor=#dae8fc;html=1;" parent="1" vertex="1">
          <mxGeometry x="4894.5" y="390" width="77.5" height="78" as="geometry" />
        </mxCell>
        <mxCell id="l75y9oXwlMvh9T1f_pYU-240" value="" style="dashed=0;connectable=0;html=1;fillColor=#757575;strokeColor=none;shape=mxgraph.gcp2.circuit_board;part=1;" parent="l75y9oXwlMvh9T1f_pYU-239" vertex="1">
          <mxGeometry x="0.5" width="50" height="45" relative="1" as="geometry">
            <mxPoint x="-25" y="12.5" as="offset" />
          </mxGeometry>
        </mxCell>
        <mxCell id="l75y9oXwlMvh9T1f_pYU-242" value="&lt;font style=&quot;font-size: 22px&quot;&gt;服务发现&lt;/font&gt;" style="text;strokeColor=none;fillColor=none;html=1;fontSize=24;fontStyle=1;verticalAlign=middle;align=center;rounded=0;shadow=0;glass=1;dashed=1;sketch=1;fontFamily=Verdana;fontColor=#66B2FF;labelBorderColor=none;" parent="1" vertex="1">
          <mxGeometry x="4715.25" y="337" width="100" height="40" as="geometry" />
        </mxCell>
        <mxCell id="l75y9oXwlMvh9T1f_pYU-243" value="&lt;font style=&quot;font-size: 22px&quot;&gt;配置中心&lt;/font&gt;" style="text;strokeColor=none;fillColor=none;html=1;fontSize=24;fontStyle=1;verticalAlign=middle;align=center;rounded=0;shadow=0;glass=1;dashed=1;sketch=1;fontFamily=Verdana;fontColor=#66B2FF;labelBorderColor=none;" parent="1" vertex="1">
          <mxGeometry x="4715.25" y="480" width="100" height="40" as="geometry" />
        </mxCell>
        <mxCell id="l75y9oXwlMvh9T1f_pYU-244" value="&lt;span style=&quot;font-size: 22px&quot;&gt;负载均衡&lt;/span&gt;" style="text;strokeColor=none;fillColor=none;html=1;fontSize=24;fontStyle=1;verticalAlign=middle;align=center;rounded=0;shadow=0;glass=1;dashed=1;sketch=1;fontFamily=Verdana;fontColor=#66B2FF;labelBorderColor=none;" parent="1" vertex="1">
          <mxGeometry x="4878" y="338" width="100" height="40" as="geometry" />
        </mxCell>
        <mxCell id="l75y9oXwlMvh9T1f_pYU-245" value="&lt;span style=&quot;font-size: 22px&quot;&gt;熔断降级&lt;/span&gt;" style="text;strokeColor=none;fillColor=none;html=1;fontSize=24;fontStyle=1;verticalAlign=middle;align=center;rounded=0;shadow=0;glass=1;dashed=1;sketch=1;fontFamily=Verdana;fontColor=#66B2FF;labelBorderColor=none;" parent="1" vertex="1">
          <mxGeometry x="4883.25" y="480" width="100" height="40" as="geometry" />
        </mxCell>
        <mxCell id="l75y9oXwlMvh9T1f_pYU-246" value="&lt;span style=&quot;font-size: 22px&quot;&gt;熔断降级&lt;/span&gt;" style="text;strokeColor=none;fillColor=none;html=1;fontSize=24;fontStyle=1;verticalAlign=middle;align=center;rounded=0;shadow=0;glass=1;dashed=1;sketch=1;fontFamily=Verdana;fontColor=#66B2FF;labelBorderColor=none;" parent="1" vertex="1">
          <mxGeometry x="4883.25" y="480" width="100" height="40" as="geometry" />
        </mxCell>
        <mxCell id="l75y9oXwlMvh9T1f_pYU-247" value="&lt;span style=&quot;font-size: 22px&quot;&gt;服务监控&lt;/span&gt;" style="text;strokeColor=none;fillColor=none;html=1;fontSize=24;fontStyle=1;verticalAlign=middle;align=center;rounded=0;shadow=0;glass=1;dashed=1;sketch=1;fontFamily=Verdana;fontColor=#66B2FF;labelBorderColor=none;" parent="1" vertex="1">
          <mxGeometry x="5062.75" y="480" width="100" height="40" as="geometry" />
        </mxCell>
        <mxCell id="l75y9oXwlMvh9T1f_pYU-248" value="&lt;span style=&quot;font-size: 22px&quot;&gt;服务网关&lt;/span&gt;" style="text;strokeColor=none;fillColor=none;html=1;fontSize=24;fontStyle=1;verticalAlign=middle;align=center;rounded=0;shadow=0;glass=1;dashed=1;sketch=1;fontFamily=Verdana;fontColor=#66B2FF;labelBorderColor=none;" parent="1" vertex="1">
          <mxGeometry x="5062.75" y="340" width="100" height="40" as="geometry" />
        </mxCell>
      </root>
    </mxGraphModel>
  </diagram>
</mxfile>
